%TF.GenerationSoftware,KiCad,Pcbnew,10.0.5*%
%TF.CreationDate,2026-10-06T22:57:02+05:30*%
%TF.ProjectId,Bridge Rectifire,42726964-6765-4205-9265-637469666972,rev?*%
%TF.SameCoordinates,Original*%
%TF.FileFunction,Copper,L2,Bot*%
%TF.FilePolarity,Positive*%
%FSLAX46Y46*%
G04 Gerber Fmt 4.6, Leading zero omitted, Abs format (unit mm)*
G04 Created by KiCad (PCBNEW 10.0.5) date 2026-10-06 22:57:02*
%MOMM*%
%LPD*%
G01*
G04 APERTURE LIST*
G04 Aperture macros list*
%AMRoundRect*
0 Rectangle with rounded corners*
0 $1 Rounding radius*
0 $2 $3 $4 $5 $6 $7 $8 $9 X,Y pos of 4 corners*
0 Add a 4 corners polygon primitive as box body*
4,1,4,$2,$3,$4,$5,$6,$7,$8,$9,$2,$3,0*
0 Add four circle primitives for the rounded corners*
1,1,$1+$1,$2,$3*
1,1,$1+$1,$4,$5*
1,1,$1+$1,$6,$7*
1,1,$1+$1,$8,$9*
0 Add four rect primitives between the rounded corners*
20,1,$1+$1,$2,$3,$4,$5,0*
20,1,$1+$1,$4,$5,$6,$7,0*
20,1,$1+$1,$6,$7,$8,$9,0*
20,1,$1+$1,$8,$9,$2,$3,0*%
G04 Aperture macros list end*
%TA.AperFunction,ComponentPad*%
%ADD10R,2.200000X2.200000*%
%TD*%
%TA.AperFunction,ComponentPad*%
%ADD11C,2.200000*%
%TD*%
%TA.AperFunction,ComponentPad*%
%ADD12C,2.600000*%
%TD*%
%TA.AperFunction,ComponentPad*%
%ADD13RoundRect,0.250000X1.050000X-1.050000X1.050000X1.050000X-1.050000X1.050000X-1.050000X-1.050000X0*%
%TD*%
%TA.AperFunction,ComponentPad*%
%ADD14C,1.600000*%
%TD*%
%TA.AperFunction,ComponentPad*%
%ADD15RoundRect,0.250000X0.550000X-0.550000X0.550000X0.550000X-0.550000X0.550000X-0.550000X-0.550000X0*%
%TD*%
%TA.AperFunction,ComponentPad*%
%ADD16RoundRect,0.250000X-0.550000X-0.550000X0.550000X-0.550000X0.550000X0.550000X-0.550000X0.550000X0*%
%TD*%
%TA.AperFunction,ComponentPad*%
%ADD17R,2.300000X1.500000*%
%TD*%
%TA.AperFunction,ComponentPad*%
%ADD18O,2.300000X1.500000*%
%TD*%
%TA.AperFunction,ComponentPad*%
%ADD19RoundRect,0.250000X-1.050000X1.050000X-1.050000X-1.050000X1.050000X-1.050000X1.050000X1.050000X0*%
%TD*%
%TA.AperFunction,ComponentPad*%
%ADD20R,1.800000X1.800000*%
%TD*%
%TA.AperFunction,ComponentPad*%
%ADD21C,1.800000*%
%TD*%
%TA.AperFunction,ComponentPad*%
%ADD22R,2.000000X2.000000*%
%TD*%
%TA.AperFunction,ComponentPad*%
%ADD23O,2.000000X2.000000*%
%TD*%
%TA.AperFunction,Conductor*%
%ADD24C,1.000000*%
%TD*%
G04 APERTURE END LIST*
D10*
%TO.P,T1,1,AA_1*%
%TO.N,Net-(J2-Pin_2)*%
X122787500Y-113337500D03*
D11*
%TO.P,T1,2,AB_2*%
%TO.N,Net-(J2-Pin_1)*%
X122787500Y-100637500D03*
%TO.P,T1,3,SA_3*%
%TO.N,Net-(T1-SA)*%
X112787500Y-100637500D03*
%TO.P,T1,4,SB_4*%
%TO.N,Net-(T1-SB)*%
X112787500Y-113337500D03*
%TD*%
D12*
%TO.P,J1,2,Pin_2_2*%
%TO.N,GND*%
X183572500Y-104265000D03*
D13*
%TO.P,J1,1,Pin_1_1*%
%TO.N,Net-(J1-Pin_1)*%
X183572500Y-109345000D03*
%TD*%
D14*
%TO.P,C3,2*%
%TO.N,GND*%
X138450000Y-113400000D03*
D15*
%TO.P,C3,1*%
%TO.N,Net-(J1-Pin_1)*%
X138450000Y-117200000D03*
%TD*%
D14*
%TO.P,C4,2*%
%TO.N,GND*%
X148000000Y-113400000D03*
D15*
%TO.P,C4,1*%
%TO.N,Net-(J1-Pin_1)*%
X148000000Y-117200000D03*
%TD*%
D14*
%TO.P,C2,2*%
%TO.N,GND*%
X172197349Y-110600000D03*
D16*
%TO.P,C2,1*%
%TO.N,Net-(D1-+)*%
X168397349Y-110600000D03*
%TD*%
D17*
%TO.P,U1,1,IN_1*%
%TO.N,Net-(D1-+)*%
X149107500Y-104347500D03*
D18*
%TO.P,U1,2,GND_2*%
%TO.N,GND*%
X149107500Y-101807500D03*
%TO.P,U1,3,OUT_3*%
%TO.N,Net-(J1-Pin_1)*%
X149107500Y-99267500D03*
%TD*%
D14*
%TO.P,R1,1*%
%TO.N,Net-(J1-Pin_1)*%
X155155000Y-99100000D03*
%TO.P,R1,2*%
%TO.N,Net-(D2-A)*%
X162775000Y-99100000D03*
%TD*%
D19*
%TO.P,J2,1,Pin_1_1*%
%TO.N,Net-(J2-Pin_1)*%
X98627500Y-103755000D03*
D12*
%TO.P,J2,2,Pin_2_2*%
%TO.N,Net-(J2-Pin_2)*%
X98627500Y-108835000D03*
%TD*%
D20*
%TO.P,D2,1,K_1*%
%TO.N,GND*%
X157425000Y-107200000D03*
D21*
%TO.P,D2,2,A_2*%
%TO.N,Net-(D2-A)*%
X159965000Y-107200000D03*
%TD*%
D22*
%TO.P,D1,1,+_1*%
%TO.N,Net-(D1-+)*%
X137480000Y-106280000D03*
D23*
%TO.P,D1,2*%
%TO.N,Net-(T1-SA)*%
X137480000Y-101200000D03*
%TO.P,D1,3,-_3*%
%TO.N,GND*%
X132400000Y-101200000D03*
%TO.P,D1,4*%
%TO.N,Net-(T1-SB)*%
X132400000Y-106280000D03*
%TD*%
D16*
%TO.P,C1,1*%
%TO.N,Net-(D1-+)*%
X168397349Y-101050000D03*
D14*
%TO.P,C1,2*%
%TO.N,GND*%
X172197349Y-101050000D03*
%TD*%
%TO.N,Net-(J1-Pin_1)*%
D24*
X167300000Y-112100000D02*
X180817500Y-112100000D01*
X155155000Y-99955000D02*
X167300000Y-112100000D01*
X155155000Y-99100000D02*
X155155000Y-99955000D01*
X180817500Y-112100000D02*
X183572500Y-109345000D01*
X150957500Y-101117500D02*
X149107500Y-99267500D01*
X150957500Y-114242500D02*
X150957500Y-101117500D01*
X148000000Y-117200000D02*
X150957500Y-114242500D01*
%TO.N,GND*%
X172197349Y-110600000D02*
X172197349Y-101050000D01*
%TD*%
%TA.AperFunction,Conductor*%
%TO.N,Net-(D1-+)*%
G36*
X189642539Y-92820185D02*
G01*
X189688294Y-92872989D01*
X189699500Y-92924500D01*
X189699500Y-121275500D01*
X189679815Y-121342539D01*
X189627011Y-121388294D01*
X189575500Y-121399500D01*
X93224500Y-121399500D01*
X93157461Y-121379815D01*
X93111706Y-121327011D01*
X93100500Y-121275500D01*
X93100500Y-116599983D01*
X137149500Y-116599983D01*
X137149500Y-117800001D01*
X137149501Y-117800018D01*
X137160000Y-117902796D01*
X137160001Y-117902799D01*
X137215185Y-118069331D01*
X137215186Y-118069334D01*
X137307288Y-118218656D01*
X137431344Y-118342712D01*
X137580666Y-118434814D01*
X137747203Y-118489999D01*
X137849991Y-118500500D01*
X139050008Y-118500499D01*
X139152797Y-118489999D01*
X139319334Y-118434814D01*
X139468656Y-118342712D01*
X139592712Y-118218656D01*
X139684814Y-118069334D01*
X139739999Y-117902797D01*
X139750500Y-117800009D01*
X139750499Y-116599992D01*
X139750498Y-116599983D01*
X146699500Y-116599983D01*
X146699500Y-117800001D01*
X146699501Y-117800018D01*
X146710000Y-117902796D01*
X146710001Y-117902799D01*
X146765185Y-118069331D01*
X146765186Y-118069334D01*
X146857288Y-118218656D01*
X146981344Y-118342712D01*
X147130666Y-118434814D01*
X147297203Y-118489999D01*
X147399991Y-118500500D01*
X148600008Y-118500499D01*
X148702797Y-118489999D01*
X148869334Y-118434814D01*
X149018656Y-118342712D01*
X149142712Y-118218656D01*
X149234814Y-118069334D01*
X149289999Y-117902797D01*
X149300500Y-117800009D01*
X149300499Y-117365780D01*
X149320183Y-117298742D01*
X149336813Y-117278105D01*
X151734640Y-114880281D01*
X151844132Y-114716414D01*
X151919552Y-114534335D01*
X151958001Y-114341040D01*
X151958001Y-114143959D01*
X151958001Y-114138849D01*
X151958000Y-114138823D01*
X151958000Y-101018956D01*
X151925122Y-100853673D01*
X151925122Y-100853672D01*
X151919551Y-100825664D01*
X151883229Y-100737976D01*
X151880811Y-100732139D01*
X151844135Y-100643593D01*
X151844134Y-100643592D01*
X151844132Y-100643586D01*
X151782122Y-100550781D01*
X151734639Y-100479717D01*
X151592186Y-100337264D01*
X151592155Y-100337235D01*
X150783922Y-99529002D01*
X150750437Y-99467679D01*
X150749130Y-99421922D01*
X150758000Y-99365921D01*
X150758000Y-99169077D01*
X150733149Y-99012174D01*
X150730847Y-98997648D01*
X153854500Y-98997648D01*
X153854500Y-99202351D01*
X153886522Y-99404534D01*
X153949781Y-99599223D01*
X154019701Y-99736447D01*
X154042713Y-99781610D01*
X154130819Y-99902877D01*
X154154298Y-99968681D01*
X154154500Y-99975761D01*
X154154500Y-100053541D01*
X154160190Y-100082145D01*
X154160190Y-100082147D01*
X154192947Y-100246830D01*
X154192949Y-100246837D01*
X154201715Y-100267997D01*
X154201717Y-100268003D01*
X154268364Y-100428906D01*
X154268366Y-100428911D01*
X154268368Y-100428914D01*
X154377861Y-100592782D01*
X154517218Y-100732139D01*
X154517220Y-100732140D01*
X154524286Y-100739206D01*
X154524285Y-100739206D01*
X154524289Y-100739209D01*
X159480391Y-105695312D01*
X159513876Y-105756635D01*
X159508892Y-105826327D01*
X159467020Y-105882260D01*
X159431035Y-105900921D01*
X159427394Y-105902105D01*
X159288270Y-105972993D01*
X159230974Y-106002187D01*
X159052641Y-106131752D01*
X159052636Y-106131756D01*
X159002463Y-106181929D01*
X158941140Y-106215413D01*
X158871448Y-106210428D01*
X158815515Y-106168557D01*
X158798601Y-106137580D01*
X158768797Y-106057671D01*
X158768793Y-106057664D01*
X158682547Y-105942455D01*
X158682544Y-105942452D01*
X158567335Y-105856206D01*
X158567328Y-105856202D01*
X158432482Y-105805908D01*
X158432483Y-105805908D01*
X158372883Y-105799501D01*
X158372881Y-105799500D01*
X158372873Y-105799500D01*
X158372864Y-105799500D01*
X156477129Y-105799500D01*
X156477123Y-105799501D01*
X156417516Y-105805908D01*
X156282671Y-105856202D01*
X156282664Y-105856206D01*
X156167455Y-105942452D01*
X156167452Y-105942455D01*
X156081206Y-106057664D01*
X156081202Y-106057671D01*
X156030908Y-106192517D01*
X156024501Y-106252116D01*
X156024500Y-106252135D01*
X156024500Y-108147870D01*
X156024501Y-108147876D01*
X156030908Y-108207483D01*
X156081202Y-108342328D01*
X156081206Y-108342335D01*
X156167452Y-108457544D01*
X156167455Y-108457547D01*
X156282664Y-108543793D01*
X156282671Y-108543797D01*
X156417517Y-108594091D01*
X156417516Y-108594091D01*
X156424444Y-108594835D01*
X156477127Y-108600500D01*
X158372872Y-108600499D01*
X158432483Y-108594091D01*
X158567331Y-108543796D01*
X158682546Y-108457546D01*
X158768796Y-108342331D01*
X158796429Y-108268243D01*
X158798601Y-108262420D01*
X158840471Y-108206486D01*
X158905936Y-108182068D01*
X158974209Y-108196919D01*
X159002464Y-108218071D01*
X159052636Y-108268243D01*
X159052641Y-108268247D01*
X159154603Y-108342326D01*
X159230978Y-108397815D01*
X159359375Y-108463237D01*
X159427393Y-108497895D01*
X159427396Y-108497896D01*
X159532221Y-108531955D01*
X159637049Y-108566015D01*
X159854778Y-108600500D01*
X159854779Y-108600500D01*
X160075221Y-108600500D01*
X160075222Y-108600500D01*
X160292951Y-108566015D01*
X160502606Y-108497895D01*
X160699022Y-108397815D01*
X160877365Y-108268242D01*
X161033242Y-108112365D01*
X161162815Y-107934022D01*
X161262895Y-107737606D01*
X161262897Y-107737600D01*
X161264076Y-107733973D01*
X161303512Y-107676297D01*
X161367871Y-107649098D01*
X161436717Y-107661012D01*
X161469688Y-107684609D01*
X166522860Y-112737781D01*
X166522861Y-112737782D01*
X166662218Y-112877139D01*
X166662219Y-112877140D01*
X166790290Y-112962714D01*
X166826086Y-112986632D01*
X166826088Y-112986633D01*
X166826092Y-112986635D01*
X166917123Y-113024340D01*
X166917124Y-113024341D01*
X166954829Y-113039959D01*
X167008165Y-113062052D01*
X167169389Y-113094121D01*
X167201457Y-113100499D01*
X167201458Y-113100500D01*
X167201459Y-113100500D01*
X180916043Y-113100500D01*
X180985421Y-113086699D01*
X181020111Y-113079799D01*
X181109336Y-113062051D01*
X181162665Y-113039961D01*
X181291414Y-112986632D01*
X181455282Y-112877139D01*
X181594639Y-112737782D01*
X181594639Y-112737780D01*
X181604847Y-112727573D01*
X181604849Y-112727570D01*
X183150601Y-111181818D01*
X183211924Y-111148333D01*
X183238282Y-111145499D01*
X184672502Y-111145499D01*
X184672508Y-111145499D01*
X184775297Y-111134999D01*
X184941834Y-111079814D01*
X185091156Y-110987712D01*
X185215212Y-110863656D01*
X185307314Y-110714334D01*
X185362499Y-110547797D01*
X185373000Y-110445009D01*
X185372999Y-108244992D01*
X185362499Y-108142203D01*
X185307314Y-107975666D01*
X185215212Y-107826344D01*
X185091156Y-107702288D01*
X184941834Y-107610186D01*
X184775297Y-107555001D01*
X184775295Y-107555000D01*
X184672510Y-107544500D01*
X182472498Y-107544500D01*
X182472481Y-107544501D01*
X182369703Y-107555000D01*
X182369700Y-107555001D01*
X182203168Y-107610185D01*
X182203163Y-107610187D01*
X182053842Y-107702289D01*
X181929789Y-107826342D01*
X181837687Y-107975663D01*
X181837685Y-107975668D01*
X181817381Y-108036943D01*
X181782501Y-108142203D01*
X181782501Y-108142204D01*
X181782500Y-108142204D01*
X181772000Y-108244983D01*
X181772000Y-109679216D01*
X181752315Y-109746255D01*
X181735680Y-109766897D01*
X180748186Y-110754394D01*
X180439399Y-111063181D01*
X180378076Y-111096666D01*
X180351718Y-111099500D01*
X173573150Y-111099500D01*
X173506111Y-111079815D01*
X173460356Y-111027011D01*
X173450412Y-110957853D01*
X173455219Y-110937183D01*
X173465824Y-110904542D01*
X173465824Y-110904538D01*
X173465826Y-110904534D01*
X173497849Y-110702352D01*
X173497849Y-110497648D01*
X173494420Y-110476000D01*
X173465826Y-110295465D01*
X173402567Y-110100776D01*
X173363802Y-110024697D01*
X173309636Y-109918390D01*
X173250833Y-109837454D01*
X173221531Y-109797122D01*
X173198051Y-109731316D01*
X173197849Y-109724237D01*
X173197849Y-104146995D01*
X181772000Y-104146995D01*
X181772000Y-104383004D01*
X181772001Y-104383020D01*
X181802806Y-104617010D01*
X181863894Y-104844993D01*
X181954214Y-105063045D01*
X181954219Y-105063056D01*
X181996037Y-105135485D01*
X182072227Y-105267450D01*
X182072229Y-105267453D01*
X182072230Y-105267454D01*
X182215906Y-105454697D01*
X182215912Y-105454704D01*
X182382795Y-105621587D01*
X182382801Y-105621592D01*
X182570050Y-105765273D01*
X182640434Y-105805909D01*
X182774443Y-105883280D01*
X182774448Y-105883282D01*
X182774451Y-105883284D01*
X182992507Y-105973606D01*
X183220486Y-106034693D01*
X183454489Y-106065500D01*
X183454496Y-106065500D01*
X183690504Y-106065500D01*
X183690511Y-106065500D01*
X183924514Y-106034693D01*
X184152493Y-105973606D01*
X184370549Y-105883284D01*
X184574950Y-105765273D01*
X184762199Y-105621592D01*
X184929092Y-105454699D01*
X185072773Y-105267450D01*
X185190784Y-105063049D01*
X185281106Y-104844993D01*
X185342193Y-104617014D01*
X185373000Y-104383011D01*
X185373000Y-104146989D01*
X185342193Y-103912986D01*
X185281106Y-103685007D01*
X185190784Y-103466951D01*
X185190782Y-103466948D01*
X185190780Y-103466943D01*
X185126383Y-103355406D01*
X185072773Y-103262550D01*
X184929092Y-103075301D01*
X184929087Y-103075295D01*
X184762204Y-102908412D01*
X184762197Y-102908406D01*
X184574954Y-102764730D01*
X184574953Y-102764729D01*
X184574950Y-102764727D01*
X184463706Y-102700500D01*
X184370556Y-102646719D01*
X184370545Y-102646714D01*
X184152493Y-102556394D01*
X183924510Y-102495306D01*
X183690520Y-102464501D01*
X183690517Y-102464500D01*
X183690511Y-102464500D01*
X183454489Y-102464500D01*
X183454483Y-102464500D01*
X183454479Y-102464501D01*
X183220489Y-102495306D01*
X182992506Y-102556394D01*
X182774454Y-102646714D01*
X182774443Y-102646719D01*
X182583409Y-102757014D01*
X182575943Y-102761325D01*
X182570045Y-102764730D01*
X182382802Y-102908406D01*
X182382795Y-102908412D01*
X182215912Y-103075295D01*
X182215906Y-103075302D01*
X182072230Y-103262545D01*
X181954219Y-103466943D01*
X181954214Y-103466954D01*
X181863894Y-103685006D01*
X181802806Y-103912989D01*
X181772001Y-104146979D01*
X181772000Y-104146995D01*
X173197849Y-104146995D01*
X173197849Y-101925761D01*
X173217534Y-101858722D01*
X173221514Y-101852899D01*
X173309636Y-101731610D01*
X173402569Y-101549219D01*
X173465826Y-101354534D01*
X173497849Y-101152352D01*
X173497849Y-100947648D01*
X173478528Y-100825663D01*
X173465826Y-100745465D01*
X173434807Y-100650000D01*
X173402569Y-100550781D01*
X173402567Y-100550778D01*
X173402567Y-100550776D01*
X173368852Y-100484607D01*
X173309636Y-100368390D01*
X173287001Y-100337235D01*
X173189320Y-100202786D01*
X173044562Y-100058028D01*
X172878962Y-99937715D01*
X172878961Y-99937714D01*
X172878959Y-99937713D01*
X172810586Y-99902875D01*
X172696572Y-99844781D01*
X172501883Y-99781522D01*
X172327344Y-99753878D01*
X172299701Y-99749500D01*
X172094997Y-99749500D01*
X172070678Y-99753351D01*
X171892814Y-99781522D01*
X171698125Y-99844781D01*
X171515735Y-99937715D01*
X171350135Y-100058028D01*
X171205377Y-100202786D01*
X171085064Y-100368386D01*
X170992130Y-100550776D01*
X170928871Y-100745465D01*
X170896849Y-100947648D01*
X170896849Y-101152351D01*
X170928871Y-101354534D01*
X170992130Y-101549223D01*
X171043472Y-101649986D01*
X171085062Y-101731610D01*
X171173168Y-101852877D01*
X171196647Y-101918681D01*
X171196849Y-101925761D01*
X171196849Y-109724237D01*
X171177164Y-109791276D01*
X171173167Y-109797122D01*
X171085064Y-109918386D01*
X170992130Y-110100776D01*
X170928871Y-110295465D01*
X170896849Y-110497648D01*
X170896849Y-110702351D01*
X170928872Y-110904535D01*
X170928873Y-110904542D01*
X170939479Y-110937183D01*
X170941474Y-111007024D01*
X170905393Y-111066857D01*
X170842692Y-111097684D01*
X170821548Y-111099500D01*
X169821349Y-111099500D01*
X169754310Y-111079815D01*
X169708555Y-111027011D01*
X169697349Y-110975500D01*
X169697349Y-110850000D01*
X168713035Y-110850000D01*
X168717429Y-110845606D01*
X168770090Y-110754394D01*
X168797349Y-110652661D01*
X168797349Y-110547339D01*
X168770090Y-110445606D01*
X168717429Y-110354394D01*
X168713035Y-110350000D01*
X169697348Y-110350000D01*
X169697348Y-110000028D01*
X169697347Y-110000013D01*
X169686854Y-109897302D01*
X169631707Y-109730880D01*
X169631705Y-109730875D01*
X169539664Y-109581654D01*
X169415694Y-109457684D01*
X169266473Y-109365643D01*
X169266468Y-109365641D01*
X169100046Y-109310494D01*
X169100039Y-109310493D01*
X168997335Y-109300000D01*
X168647349Y-109300000D01*
X168647349Y-110284314D01*
X168642955Y-110279920D01*
X168551743Y-110227259D01*
X168450010Y-110200000D01*
X168344688Y-110200000D01*
X168242955Y-110227259D01*
X168151743Y-110279920D01*
X168147349Y-110284314D01*
X168147349Y-109300000D01*
X167797377Y-109300000D01*
X167797361Y-109300001D01*
X167694651Y-109310494D01*
X167528229Y-109365641D01*
X167528224Y-109365643D01*
X167379003Y-109457684D01*
X167255033Y-109581654D01*
X167162992Y-109730875D01*
X167162990Y-109730880D01*
X167107843Y-109897302D01*
X167107842Y-109897309D01*
X167097349Y-110000013D01*
X167097349Y-110183066D01*
X167077664Y-110250105D01*
X167024860Y-110295860D01*
X166955702Y-110305804D01*
X166892146Y-110276779D01*
X166885668Y-110270747D01*
X162420829Y-105805908D01*
X157064933Y-100450013D01*
X167097349Y-100450013D01*
X167097349Y-100800000D01*
X168081663Y-100800000D01*
X168077269Y-100804394D01*
X168024608Y-100895606D01*
X167997349Y-100997339D01*
X167997349Y-101102661D01*
X168024608Y-101204394D01*
X168077269Y-101295606D01*
X168081663Y-101300000D01*
X167097350Y-101300000D01*
X167097350Y-101649986D01*
X167107843Y-101752697D01*
X167162990Y-101919119D01*
X167162992Y-101919124D01*
X167255033Y-102068345D01*
X167379003Y-102192315D01*
X167528224Y-102284356D01*
X167528229Y-102284358D01*
X167694651Y-102339505D01*
X167694658Y-102339506D01*
X167797368Y-102349999D01*
X168147348Y-102349999D01*
X168147349Y-102349998D01*
X168147349Y-101365686D01*
X168151743Y-101370080D01*
X168242955Y-101422741D01*
X168344688Y-101450000D01*
X168450010Y-101450000D01*
X168551743Y-101422741D01*
X168642955Y-101370080D01*
X168647349Y-101365686D01*
X168647349Y-102349999D01*
X168997321Y-102349999D01*
X168997335Y-102349998D01*
X169100046Y-102339505D01*
X169266468Y-102284358D01*
X169266473Y-102284356D01*
X169415694Y-102192315D01*
X169539664Y-102068345D01*
X169631705Y-101919124D01*
X169631707Y-101919119D01*
X169686854Y-101752697D01*
X169686855Y-101752690D01*
X169697348Y-101649986D01*
X169697349Y-101649973D01*
X169697349Y-101300000D01*
X168713035Y-101300000D01*
X168717429Y-101295606D01*
X168770090Y-101204394D01*
X168797349Y-101102661D01*
X168797349Y-100997339D01*
X168770090Y-100895606D01*
X168717429Y-100804394D01*
X168713035Y-100800000D01*
X169697348Y-100800000D01*
X169697348Y-100450028D01*
X169697347Y-100450013D01*
X169686854Y-100347302D01*
X169631707Y-100180880D01*
X169631705Y-100180875D01*
X169539664Y-100031654D01*
X169415694Y-99907684D01*
X169266473Y-99815643D01*
X169266468Y-99815641D01*
X169100046Y-99760494D01*
X169100039Y-99760493D01*
X168997335Y-99750000D01*
X168647349Y-99750000D01*
X168647349Y-100734314D01*
X168642955Y-100729920D01*
X168551743Y-100677259D01*
X168450010Y-100650000D01*
X168344688Y-100650000D01*
X168242955Y-100677259D01*
X168151743Y-100729920D01*
X168147349Y-100734314D01*
X168147349Y-99750000D01*
X167797377Y-99750000D01*
X167797361Y-99750001D01*
X167694651Y-99760494D01*
X167528229Y-99815641D01*
X167528224Y-99815643D01*
X167379003Y-99907684D01*
X167255033Y-100031654D01*
X167162992Y-100180875D01*
X167162990Y-100180880D01*
X167107843Y-100347302D01*
X167107842Y-100347309D01*
X167097349Y-100450013D01*
X157064933Y-100450013D01*
X156374614Y-99759694D01*
X156341130Y-99698372D01*
X156346114Y-99628680D01*
X156351803Y-99615737D01*
X156360220Y-99599219D01*
X156423477Y-99404534D01*
X156455500Y-99202352D01*
X156455500Y-98997648D01*
X161474500Y-98997648D01*
X161474500Y-99202351D01*
X161506522Y-99404534D01*
X161569781Y-99599223D01*
X161619088Y-99695991D01*
X161662668Y-99781522D01*
X161662715Y-99781613D01*
X161783028Y-99947213D01*
X161927786Y-100091971D01*
X162080306Y-100202781D01*
X162093390Y-100212287D01*
X162202727Y-100267997D01*
X162275776Y-100305218D01*
X162275778Y-100305218D01*
X162275781Y-100305220D01*
X162348762Y-100328933D01*
X162470465Y-100368477D01*
X162571557Y-100384488D01*
X162672648Y-100400500D01*
X162672649Y-100400500D01*
X162877351Y-100400500D01*
X162877352Y-100400500D01*
X163079534Y-100368477D01*
X163274219Y-100305220D01*
X163456610Y-100212287D01*
X163549590Y-100144732D01*
X163622213Y-100091971D01*
X163622215Y-100091968D01*
X163622219Y-100091966D01*
X163766966Y-99947219D01*
X163766968Y-99947215D01*
X163766971Y-99947213D01*
X163841391Y-99844781D01*
X163887287Y-99781610D01*
X163980220Y-99599219D01*
X164043477Y-99404534D01*
X164075500Y-99202352D01*
X164075500Y-98997648D01*
X164043477Y-98795466D01*
X163980220Y-98600781D01*
X163980218Y-98600778D01*
X163980218Y-98600776D01*
X163904846Y-98452852D01*
X163887287Y-98418390D01*
X163879556Y-98407749D01*
X163766971Y-98252786D01*
X163622213Y-98108028D01*
X163456613Y-97987715D01*
X163456612Y-97987714D01*
X163456610Y-97987713D01*
X163399653Y-97958691D01*
X163274223Y-97894781D01*
X163079534Y-97831522D01*
X162904995Y-97803878D01*
X162877352Y-97799500D01*
X162672648Y-97799500D01*
X162648329Y-97803351D01*
X162470465Y-97831522D01*
X162275776Y-97894781D01*
X162093386Y-97987715D01*
X161927786Y-98108028D01*
X161783028Y-98252786D01*
X161662715Y-98418386D01*
X161569781Y-98600776D01*
X161506522Y-98795465D01*
X161474500Y-98997648D01*
X156455500Y-98997648D01*
X156423477Y-98795466D01*
X156360220Y-98600781D01*
X156360218Y-98600778D01*
X156360218Y-98600776D01*
X156284846Y-98452852D01*
X156267287Y-98418390D01*
X156259556Y-98407749D01*
X156146971Y-98252786D01*
X156002213Y-98108028D01*
X155836613Y-97987715D01*
X155836612Y-97987714D01*
X155836610Y-97987713D01*
X155779653Y-97958691D01*
X155654223Y-97894781D01*
X155459534Y-97831522D01*
X155284995Y-97803878D01*
X155257352Y-97799500D01*
X155052648Y-97799500D01*
X155028329Y-97803351D01*
X154850465Y-97831522D01*
X154655776Y-97894781D01*
X154473386Y-97987715D01*
X154307786Y-98108028D01*
X154163028Y-98252786D01*
X154042715Y-98418386D01*
X153949781Y-98600776D01*
X153886522Y-98795465D01*
X153854500Y-98997648D01*
X150730847Y-98997648D01*
X150730245Y-98993846D01*
X150727209Y-98974674D01*
X150666384Y-98787475D01*
X150666382Y-98787472D01*
X150666382Y-98787470D01*
X150577023Y-98612094D01*
X150461328Y-98452854D01*
X150322146Y-98313672D01*
X150162905Y-98197976D01*
X149987529Y-98108617D01*
X149800326Y-98047790D01*
X149605922Y-98017000D01*
X149605917Y-98017000D01*
X148609083Y-98017000D01*
X148609078Y-98017000D01*
X148414673Y-98047790D01*
X148227470Y-98108617D01*
X148052094Y-98197976D01*
X147976663Y-98252781D01*
X147892854Y-98313672D01*
X147892852Y-98313674D01*
X147892851Y-98313674D01*
X147753674Y-98452851D01*
X147753674Y-98452852D01*
X147753672Y-98452854D01*
X147703985Y-98521241D01*
X147637976Y-98612094D01*
X147548617Y-98787470D01*
X147487790Y-98974673D01*
X147457000Y-99169077D01*
X147457000Y-99365922D01*
X147487790Y-99560326D01*
X147548617Y-99747529D01*
X147637976Y-99922905D01*
X147753672Y-100082146D01*
X147892854Y-100221328D01*
X148052095Y-100337024D01*
X148175492Y-100399897D01*
X148228713Y-100427015D01*
X148279509Y-100474989D01*
X148296304Y-100542810D01*
X148273767Y-100608945D01*
X148228713Y-100647985D01*
X148052094Y-100737976D01*
X147892851Y-100853674D01*
X147753674Y-100992851D01*
X147753674Y-100992852D01*
X147753672Y-100992854D01*
X147703985Y-101061241D01*
X147637976Y-101152094D01*
X147548617Y-101327470D01*
X147487790Y-101514673D01*
X147457000Y-101709077D01*
X147457000Y-101905922D01*
X147487790Y-102100326D01*
X147548617Y-102287529D01*
X147598619Y-102385663D01*
X147637976Y-102462905D01*
X147753672Y-102622146D01*
X147892854Y-102761328D01*
X148046807Y-102873182D01*
X148089472Y-102928512D01*
X148095451Y-102998126D01*
X148062845Y-103059921D01*
X148002006Y-103094278D01*
X147973921Y-103097500D01*
X147909655Y-103097500D01*
X147850127Y-103103901D01*
X147850120Y-103103903D01*
X147715413Y-103154145D01*
X147715406Y-103154149D01*
X147600312Y-103240309D01*
X147600309Y-103240312D01*
X147514149Y-103355406D01*
X147514145Y-103355413D01*
X147463903Y-103490120D01*
X147463901Y-103490127D01*
X147457500Y-103549655D01*
X147457500Y-104097500D01*
X148674488Y-104097500D01*
X148641575Y-104154507D01*
X148607500Y-104281674D01*
X148607500Y-104413326D01*
X148641575Y-104540493D01*
X148674488Y-104597500D01*
X147457500Y-104597500D01*
X147457500Y-105145344D01*
X147463901Y-105204872D01*
X147463903Y-105204879D01*
X147514145Y-105339586D01*
X147514149Y-105339593D01*
X147600309Y-105454687D01*
X147600312Y-105454690D01*
X147715406Y-105540850D01*
X147715413Y-105540854D01*
X147850120Y-105591096D01*
X147850127Y-105591098D01*
X147909655Y-105597499D01*
X147909672Y-105597500D01*
X148857500Y-105597500D01*
X148857500Y-104780512D01*
X148914507Y-104813425D01*
X149041674Y-104847500D01*
X149173326Y-104847500D01*
X149300493Y-104813425D01*
X149357500Y-104780512D01*
X149357500Y-105597500D01*
X149833000Y-105597500D01*
X149900039Y-105617185D01*
X149945794Y-105669989D01*
X149957000Y-105721500D01*
X149957000Y-113776717D01*
X149937315Y-113843756D01*
X149920681Y-113864398D01*
X147921897Y-115863181D01*
X147860574Y-115896666D01*
X147834216Y-115899500D01*
X147399998Y-115899500D01*
X147399980Y-115899501D01*
X147297203Y-115910000D01*
X147297200Y-115910001D01*
X147130668Y-115965185D01*
X147130663Y-115965187D01*
X146981342Y-116057289D01*
X146857289Y-116181342D01*
X146765187Y-116330663D01*
X146765186Y-116330666D01*
X146710001Y-116497203D01*
X146710001Y-116497204D01*
X146710000Y-116497204D01*
X146699500Y-116599983D01*
X139750498Y-116599983D01*
X139739999Y-116497203D01*
X139684814Y-116330666D01*
X139592712Y-116181344D01*
X139468656Y-116057288D01*
X139319334Y-115965186D01*
X139152797Y-115910001D01*
X139152795Y-115910000D01*
X139050010Y-115899500D01*
X137849998Y-115899500D01*
X137849981Y-115899501D01*
X137747203Y-115910000D01*
X137747200Y-115910001D01*
X137580668Y-115965185D01*
X137580663Y-115965187D01*
X137431342Y-116057289D01*
X137307289Y-116181342D01*
X137215187Y-116330663D01*
X137215186Y-116330666D01*
X137160001Y-116497203D01*
X137160001Y-116497204D01*
X137160000Y-116497204D01*
X137149500Y-116599983D01*
X93100500Y-116599983D01*
X93100500Y-113211538D01*
X111187000Y-113211538D01*
X111187000Y-113463462D01*
X111193160Y-113502352D01*
X111226410Y-113712285D01*
X111304260Y-113951883D01*
X111370360Y-114081610D01*
X111402125Y-114143953D01*
X111418632Y-114176348D01*
X111566701Y-114380149D01*
X111566705Y-114380154D01*
X111744845Y-114558294D01*
X111744850Y-114558298D01*
X111896500Y-114668477D01*
X111948655Y-114706370D01*
X112091684Y-114779247D01*
X112173116Y-114820739D01*
X112173118Y-114820739D01*
X112173121Y-114820741D01*
X112412715Y-114898590D01*
X112661538Y-114938000D01*
X112661539Y-114938000D01*
X112913461Y-114938000D01*
X112913462Y-114938000D01*
X113162285Y-114898590D01*
X113401879Y-114820741D01*
X113626345Y-114706370D01*
X113830156Y-114558293D01*
X114008293Y-114380156D01*
X114156370Y-114176345D01*
X114270741Y-113951879D01*
X114348590Y-113712285D01*
X114388000Y-113463462D01*
X114388000Y-113211538D01*
X114348590Y-112962715D01*
X114270741Y-112723121D01*
X114270739Y-112723118D01*
X114270739Y-112723116D01*
X114229247Y-112641684D01*
X114156370Y-112498655D01*
X114090526Y-112408028D01*
X114008298Y-112294850D01*
X114008294Y-112294845D01*
X113903084Y-112189635D01*
X121187000Y-112189635D01*
X121187000Y-114485370D01*
X121187001Y-114485376D01*
X121193408Y-114544983D01*
X121243702Y-114679828D01*
X121243706Y-114679835D01*
X121329952Y-114795044D01*
X121329955Y-114795047D01*
X121445164Y-114881293D01*
X121445171Y-114881297D01*
X121580017Y-114931591D01*
X121580016Y-114931591D01*
X121586944Y-114932335D01*
X121639627Y-114938000D01*
X123935372Y-114937999D01*
X123994983Y-114931591D01*
X124129831Y-114881296D01*
X124245046Y-114795046D01*
X124331296Y-114679831D01*
X124381591Y-114544983D01*
X124388000Y-114485373D01*
X124387999Y-113297648D01*
X137149500Y-113297648D01*
X137149500Y-113502351D01*
X137181522Y-113704534D01*
X137244781Y-113899223D01*
X137337715Y-114081613D01*
X137458028Y-114247213D01*
X137602786Y-114391971D01*
X137757749Y-114504556D01*
X137768390Y-114512287D01*
X137858682Y-114558293D01*
X137950776Y-114605218D01*
X137950778Y-114605218D01*
X137950781Y-114605220D01*
X138055137Y-114639127D01*
X138145465Y-114668477D01*
X138217132Y-114679828D01*
X138347648Y-114700500D01*
X138347649Y-114700500D01*
X138552351Y-114700500D01*
X138552352Y-114700500D01*
X138754534Y-114668477D01*
X138949219Y-114605220D01*
X139131610Y-114512287D01*
X139224590Y-114444732D01*
X139297213Y-114391971D01*
X139297215Y-114391968D01*
X139297219Y-114391966D01*
X139441966Y-114247219D01*
X139441968Y-114247215D01*
X139441971Y-114247213D01*
X139516988Y-114143959D01*
X139562287Y-114081610D01*
X139655220Y-113899219D01*
X139718477Y-113704534D01*
X139750500Y-113502352D01*
X139750500Y-113297648D01*
X146699500Y-113297648D01*
X146699500Y-113502351D01*
X146731522Y-113704534D01*
X146794781Y-113899223D01*
X146887715Y-114081613D01*
X147008028Y-114247213D01*
X147152786Y-114391971D01*
X147307749Y-114504556D01*
X147318390Y-114512287D01*
X147408682Y-114558293D01*
X147500776Y-114605218D01*
X147500778Y-114605218D01*
X147500781Y-114605220D01*
X147605137Y-114639127D01*
X147695465Y-114668477D01*
X147767132Y-114679828D01*
X147897648Y-114700500D01*
X147897649Y-114700500D01*
X148102351Y-114700500D01*
X148102352Y-114700500D01*
X148304534Y-114668477D01*
X148499219Y-114605220D01*
X148681610Y-114512287D01*
X148774590Y-114444732D01*
X148847213Y-114391971D01*
X148847215Y-114391968D01*
X148847219Y-114391966D01*
X148991966Y-114247219D01*
X148991968Y-114247215D01*
X148991971Y-114247213D01*
X149066988Y-114143959D01*
X149112287Y-114081610D01*
X149205220Y-113899219D01*
X149268477Y-113704534D01*
X149300500Y-113502352D01*
X149300500Y-113297648D01*
X149268477Y-113095466D01*
X149263386Y-113079799D01*
X149233113Y-112986628D01*
X149205220Y-112900781D01*
X149205218Y-112900778D01*
X149205218Y-112900776D01*
X149171503Y-112834607D01*
X149112287Y-112718390D01*
X149104556Y-112707749D01*
X148991971Y-112552786D01*
X148847213Y-112408028D01*
X148681613Y-112287715D01*
X148681612Y-112287714D01*
X148681610Y-112287713D01*
X148624653Y-112258691D01*
X148499223Y-112194781D01*
X148304534Y-112131522D01*
X148129995Y-112103878D01*
X148102352Y-112099500D01*
X147897648Y-112099500D01*
X147873329Y-112103351D01*
X147695465Y-112131522D01*
X147500776Y-112194781D01*
X147318386Y-112287715D01*
X147152786Y-112408028D01*
X147008028Y-112552786D01*
X146887715Y-112718386D01*
X146794781Y-112900776D01*
X146731522Y-113095465D01*
X146699500Y-113297648D01*
X139750500Y-113297648D01*
X139718477Y-113095466D01*
X139713386Y-113079799D01*
X139683113Y-112986628D01*
X139655220Y-112900781D01*
X139655218Y-112900778D01*
X139655218Y-112900776D01*
X139621503Y-112834607D01*
X139562287Y-112718390D01*
X139554556Y-112707749D01*
X139441971Y-112552786D01*
X139297213Y-112408028D01*
X139131613Y-112287715D01*
X139131612Y-112287714D01*
X139131610Y-112287713D01*
X139074653Y-112258691D01*
X138949223Y-112194781D01*
X138754534Y-112131522D01*
X138579995Y-112103878D01*
X138552352Y-112099500D01*
X138347648Y-112099500D01*
X138323329Y-112103351D01*
X138145465Y-112131522D01*
X137950776Y-112194781D01*
X137768386Y-112287715D01*
X137602786Y-112408028D01*
X137458028Y-112552786D01*
X137337715Y-112718386D01*
X137244781Y-112900776D01*
X137181522Y-113095465D01*
X137149500Y-113297648D01*
X124387999Y-113297648D01*
X124387999Y-112189628D01*
X124381591Y-112130017D01*
X124376624Y-112116701D01*
X124331297Y-111995171D01*
X124331293Y-111995164D01*
X124245047Y-111879955D01*
X124245044Y-111879952D01*
X124129835Y-111793706D01*
X124129828Y-111793702D01*
X123994982Y-111743408D01*
X123994983Y-111743408D01*
X123935383Y-111737001D01*
X123935381Y-111737000D01*
X123935373Y-111737000D01*
X123935364Y-111737000D01*
X121639629Y-111737000D01*
X121639623Y-111737001D01*
X121580016Y-111743408D01*
X121445171Y-111793702D01*
X121445164Y-111793706D01*
X121329955Y-111879952D01*
X121329952Y-111879955D01*
X121243706Y-111995164D01*
X121243702Y-111995171D01*
X121193408Y-112130017D01*
X121187001Y-112189616D01*
X121187001Y-112189623D01*
X121187000Y-112189635D01*
X113903084Y-112189635D01*
X113830154Y-112116705D01*
X113830149Y-112116701D01*
X113626348Y-111968632D01*
X113626347Y-111968631D01*
X113626345Y-111968630D01*
X113556247Y-111932913D01*
X113401883Y-111854260D01*
X113162285Y-111776410D01*
X112913462Y-111737000D01*
X112661538Y-111737000D01*
X112537126Y-111756705D01*
X112412714Y-111776410D01*
X112173116Y-111854260D01*
X111948651Y-111968632D01*
X111744850Y-112116701D01*
X111744845Y-112116705D01*
X111566705Y-112294845D01*
X111566701Y-112294850D01*
X111418632Y-112498651D01*
X111304260Y-112723116D01*
X111226410Y-112962714D01*
X111205597Y-113094120D01*
X111187000Y-113211538D01*
X93100500Y-113211538D01*
X93100500Y-108716989D01*
X96827000Y-108716989D01*
X96827000Y-108953011D01*
X96857807Y-109187014D01*
X96905670Y-109365641D01*
X96918894Y-109414993D01*
X97009214Y-109633045D01*
X97009219Y-109633056D01*
X97080177Y-109755957D01*
X97127227Y-109837450D01*
X97127229Y-109837453D01*
X97127230Y-109837454D01*
X97270906Y-110024697D01*
X97270912Y-110024704D01*
X97437795Y-110191587D01*
X97437802Y-110191593D01*
X97484283Y-110227259D01*
X97625050Y-110335273D01*
X97756418Y-110411118D01*
X97829443Y-110453280D01*
X97829448Y-110453282D01*
X97829451Y-110453284D01*
X98047507Y-110543606D01*
X98275486Y-110604693D01*
X98509489Y-110635500D01*
X98509496Y-110635500D01*
X98745504Y-110635500D01*
X98745511Y-110635500D01*
X98979514Y-110604693D01*
X99207493Y-110543606D01*
X99425549Y-110453284D01*
X99629950Y-110335273D01*
X99817199Y-110191592D01*
X99984092Y-110024699D01*
X100127773Y-109837450D01*
X100245784Y-109633049D01*
X100336106Y-109414993D01*
X100397193Y-109187014D01*
X100428000Y-108953011D01*
X100428000Y-108716989D01*
X100397193Y-108482986D01*
X100336106Y-108255007D01*
X100245784Y-108036951D01*
X100245782Y-108036948D01*
X100245780Y-108036943D01*
X100203618Y-107963918D01*
X100127773Y-107832550D01*
X100003480Y-107670568D01*
X99984093Y-107645302D01*
X99984087Y-107645295D01*
X99817204Y-107478412D01*
X99817197Y-107478406D01*
X99629954Y-107334730D01*
X99629953Y-107334729D01*
X99629950Y-107334727D01*
X99496210Y-107257512D01*
X99425556Y-107216719D01*
X99425545Y-107216714D01*
X99207493Y-107126394D01*
X98979510Y-107065306D01*
X98745520Y-107034501D01*
X98745517Y-107034500D01*
X98745511Y-107034500D01*
X98509489Y-107034500D01*
X98509483Y-107034500D01*
X98509479Y-107034501D01*
X98275489Y-107065306D01*
X98047506Y-107126394D01*
X97829454Y-107216714D01*
X97829443Y-107216719D01*
X97625045Y-107334730D01*
X97437802Y-107478406D01*
X97437795Y-107478412D01*
X97270912Y-107645295D01*
X97270906Y-107645302D01*
X97127230Y-107832545D01*
X97009219Y-108036943D01*
X97009214Y-108036954D01*
X96918894Y-108255006D01*
X96857806Y-108482989D01*
X96842336Y-108600498D01*
X96827000Y-108716989D01*
X93100500Y-108716989D01*
X93100500Y-106161902D01*
X130899500Y-106161902D01*
X130899500Y-106398097D01*
X130936446Y-106631368D01*
X131009433Y-106855996D01*
X131100386Y-107034500D01*
X131116657Y-107066433D01*
X131255483Y-107257510D01*
X131422490Y-107424517D01*
X131613567Y-107563343D01*
X131705500Y-107610185D01*
X131824003Y-107670566D01*
X131824005Y-107670566D01*
X131824008Y-107670568D01*
X131867222Y-107684609D01*
X132048631Y-107743553D01*
X132281903Y-107780500D01*
X132281908Y-107780500D01*
X132518097Y-107780500D01*
X132751368Y-107743553D01*
X132780852Y-107733973D01*
X132975992Y-107670568D01*
X133186433Y-107563343D01*
X133377510Y-107424517D01*
X133544517Y-107257510D01*
X133683343Y-107066433D01*
X133790568Y-106855992D01*
X133863553Y-106631368D01*
X133879608Y-106530000D01*
X133890816Y-106459240D01*
X133900500Y-106398097D01*
X133900500Y-106161902D01*
X133863553Y-105928631D01*
X133810473Y-105765269D01*
X133790568Y-105704008D01*
X133790566Y-105704005D01*
X133790566Y-105704003D01*
X133734002Y-105592991D01*
X133683343Y-105493567D01*
X133544517Y-105302490D01*
X133474182Y-105232155D01*
X135980000Y-105232155D01*
X135980000Y-106030000D01*
X137046988Y-106030000D01*
X137014075Y-106087007D01*
X136980000Y-106214174D01*
X136980000Y-106345826D01*
X137014075Y-106472993D01*
X137046988Y-106530000D01*
X135980000Y-106530000D01*
X135980000Y-107327844D01*
X135986401Y-107387372D01*
X135986403Y-107387379D01*
X136036645Y-107522086D01*
X136036649Y-107522093D01*
X136122809Y-107637187D01*
X136122812Y-107637190D01*
X136237906Y-107723350D01*
X136237913Y-107723354D01*
X136372620Y-107773596D01*
X136372627Y-107773598D01*
X136432155Y-107779999D01*
X136432172Y-107780000D01*
X137230000Y-107780000D01*
X137230000Y-106713012D01*
X137287007Y-106745925D01*
X137414174Y-106780000D01*
X137545826Y-106780000D01*
X137672993Y-106745925D01*
X137730000Y-106713012D01*
X137730000Y-107780000D01*
X138527828Y-107780000D01*
X138527844Y-107779999D01*
X138587372Y-107773598D01*
X138587379Y-107773596D01*
X138722086Y-107723354D01*
X138722093Y-107723350D01*
X138837187Y-107637190D01*
X138837190Y-107637187D01*
X138923350Y-107522093D01*
X138923354Y-107522086D01*
X138973596Y-107387379D01*
X138973598Y-107387372D01*
X138979999Y-107327844D01*
X138980000Y-107327827D01*
X138980000Y-106530000D01*
X137913012Y-106530000D01*
X137945925Y-106472993D01*
X137980000Y-106345826D01*
X137980000Y-106214174D01*
X137945925Y-106087007D01*
X137913012Y-106030000D01*
X138980000Y-106030000D01*
X138980000Y-105232172D01*
X138979999Y-105232155D01*
X138973598Y-105172627D01*
X138973596Y-105172620D01*
X138923354Y-105037913D01*
X138923350Y-105037906D01*
X138837190Y-104922812D01*
X138837187Y-104922809D01*
X138722093Y-104836649D01*
X138722086Y-104836645D01*
X138587379Y-104786403D01*
X138587372Y-104786401D01*
X138527844Y-104780000D01*
X137730000Y-104780000D01*
X137730000Y-105846988D01*
X137672993Y-105814075D01*
X137545826Y-105780000D01*
X137414174Y-105780000D01*
X137287007Y-105814075D01*
X137230000Y-105846988D01*
X137230000Y-104780000D01*
X136432155Y-104780000D01*
X136372627Y-104786401D01*
X136372620Y-104786403D01*
X136237913Y-104836645D01*
X136237906Y-104836649D01*
X136122812Y-104922809D01*
X136122809Y-104922812D01*
X136036649Y-105037906D01*
X136036645Y-105037913D01*
X135986403Y-105172620D01*
X135986401Y-105172627D01*
X135980000Y-105232155D01*
X133474182Y-105232155D01*
X133377510Y-105135483D01*
X133186433Y-104996657D01*
X132975996Y-104889433D01*
X132751368Y-104816446D01*
X132518097Y-104779500D01*
X132518092Y-104779500D01*
X132281908Y-104779500D01*
X132281903Y-104779500D01*
X132048631Y-104816446D01*
X131824003Y-104889433D01*
X131613566Y-104996657D01*
X131522177Y-105063056D01*
X131422490Y-105135483D01*
X131422488Y-105135485D01*
X131422487Y-105135485D01*
X131255485Y-105302487D01*
X131255485Y-105302488D01*
X131255483Y-105302490D01*
X131228531Y-105339586D01*
X131116657Y-105493566D01*
X131009433Y-105704003D01*
X130936446Y-105928631D01*
X130899500Y-106161902D01*
X93100500Y-106161902D01*
X93100500Y-102654983D01*
X96827000Y-102654983D01*
X96827000Y-104855001D01*
X96827001Y-104855018D01*
X96837500Y-104957796D01*
X96837501Y-104957799D01*
X96864049Y-105037913D01*
X96892686Y-105124334D01*
X96984788Y-105273656D01*
X97108844Y-105397712D01*
X97258166Y-105489814D01*
X97424703Y-105544999D01*
X97527491Y-105555500D01*
X99727508Y-105555499D01*
X99830297Y-105544999D01*
X99996834Y-105489814D01*
X100146156Y-105397712D01*
X100270212Y-105273656D01*
X100362314Y-105124334D01*
X100417499Y-104957797D01*
X100428000Y-104855009D01*
X100427999Y-103685007D01*
X100427999Y-102654998D01*
X100427998Y-102654981D01*
X100417499Y-102552203D01*
X100417498Y-102552200D01*
X100394681Y-102483343D01*
X100362314Y-102385666D01*
X100270212Y-102236344D01*
X100146156Y-102112288D01*
X99996834Y-102020186D01*
X99830297Y-101965001D01*
X99830295Y-101965000D01*
X99727510Y-101954500D01*
X97527498Y-101954500D01*
X97527481Y-101954501D01*
X97424703Y-101965000D01*
X97424700Y-101965001D01*
X97258168Y-102020185D01*
X97258163Y-102020187D01*
X97108842Y-102112289D01*
X96984789Y-102236342D01*
X96892687Y-102385663D01*
X96892686Y-102385666D01*
X96837501Y-102552203D01*
X96837501Y-102552204D01*
X96837500Y-102552204D01*
X96827000Y-102654983D01*
X93100500Y-102654983D01*
X93100500Y-100511538D01*
X111187000Y-100511538D01*
X111187000Y-100763461D01*
X111226410Y-101012285D01*
X111304260Y-101251883D01*
X111342774Y-101327470D01*
X111391317Y-101422741D01*
X111418632Y-101476348D01*
X111566701Y-101680149D01*
X111566705Y-101680154D01*
X111744845Y-101858294D01*
X111744850Y-101858298D01*
X111837706Y-101925761D01*
X111948655Y-102006370D01*
X112070288Y-102068345D01*
X112173116Y-102120739D01*
X112173118Y-102120739D01*
X112173121Y-102120741D01*
X112412715Y-102198590D01*
X112661538Y-102238000D01*
X112661539Y-102238000D01*
X112913461Y-102238000D01*
X112913462Y-102238000D01*
X113162285Y-102198590D01*
X113401879Y-102120741D01*
X113626345Y-102006370D01*
X113830156Y-101858293D01*
X114008293Y-101680156D01*
X114156370Y-101476345D01*
X114270741Y-101251879D01*
X114348590Y-101012285D01*
X114388000Y-100763462D01*
X114388000Y-100511538D01*
X121187000Y-100511538D01*
X121187000Y-100763461D01*
X121226410Y-101012285D01*
X121304260Y-101251883D01*
X121342774Y-101327470D01*
X121391317Y-101422741D01*
X121418632Y-101476348D01*
X121566701Y-101680149D01*
X121566705Y-101680154D01*
X121744845Y-101858294D01*
X121744850Y-101858298D01*
X121837706Y-101925761D01*
X121948655Y-102006370D01*
X122070288Y-102068345D01*
X122173116Y-102120739D01*
X122173118Y-102120739D01*
X122173121Y-102120741D01*
X122412715Y-102198590D01*
X122661538Y-102238000D01*
X122661539Y-102238000D01*
X122913461Y-102238000D01*
X122913462Y-102238000D01*
X123162285Y-102198590D01*
X123401879Y-102120741D01*
X123626345Y-102006370D01*
X123830156Y-101858293D01*
X124008293Y-101680156D01*
X124156370Y-101476345D01*
X124270741Y-101251879D01*
X124325970Y-101081902D01*
X130899500Y-101081902D01*
X130899500Y-101318097D01*
X130936446Y-101551368D01*
X131009433Y-101775996D01*
X131082361Y-101919124D01*
X131116657Y-101986433D01*
X131255483Y-102177510D01*
X131422490Y-102344517D01*
X131613567Y-102483343D01*
X131637046Y-102495306D01*
X131824003Y-102590566D01*
X131824005Y-102590566D01*
X131824008Y-102590568D01*
X131921195Y-102622146D01*
X132048631Y-102663553D01*
X132281903Y-102700500D01*
X132281908Y-102700500D01*
X132518097Y-102700500D01*
X132751368Y-102663553D01*
X132777719Y-102654991D01*
X132975992Y-102590568D01*
X133186433Y-102483343D01*
X133377510Y-102344517D01*
X133544517Y-102177510D01*
X133683343Y-101986433D01*
X133790568Y-101775992D01*
X133863553Y-101551368D01*
X133875435Y-101476348D01*
X133900500Y-101318097D01*
X133900500Y-101081902D01*
X135979500Y-101081902D01*
X135979500Y-101318097D01*
X136016446Y-101551368D01*
X136089433Y-101775996D01*
X136162361Y-101919124D01*
X136196657Y-101986433D01*
X136335483Y-102177510D01*
X136502490Y-102344517D01*
X136693567Y-102483343D01*
X136717046Y-102495306D01*
X136904003Y-102590566D01*
X136904005Y-102590566D01*
X136904008Y-102590568D01*
X137001195Y-102622146D01*
X137128631Y-102663553D01*
X137361903Y-102700500D01*
X137361908Y-102700500D01*
X137598097Y-102700500D01*
X137831368Y-102663553D01*
X137857719Y-102654991D01*
X138055992Y-102590568D01*
X138266433Y-102483343D01*
X138457510Y-102344517D01*
X138624517Y-102177510D01*
X138763343Y-101986433D01*
X138870568Y-101775992D01*
X138943553Y-101551368D01*
X138955435Y-101476348D01*
X138980500Y-101318097D01*
X138980500Y-101081902D01*
X138943553Y-100848631D01*
X138879013Y-100650000D01*
X138870568Y-100624008D01*
X138870566Y-100624005D01*
X138870566Y-100624003D01*
X138800865Y-100487209D01*
X138763343Y-100413567D01*
X138624517Y-100222490D01*
X138457510Y-100055483D01*
X138266433Y-99916657D01*
X138055996Y-99809433D01*
X137831368Y-99736446D01*
X137598097Y-99699500D01*
X137598092Y-99699500D01*
X137361908Y-99699500D01*
X137361903Y-99699500D01*
X137128631Y-99736446D01*
X136904003Y-99809433D01*
X136693566Y-99916657D01*
X136584550Y-99995862D01*
X136502490Y-100055483D01*
X136502488Y-100055485D01*
X136502487Y-100055485D01*
X136335485Y-100222487D01*
X136335485Y-100222488D01*
X136335483Y-100222490D01*
X136306258Y-100262715D01*
X136196657Y-100413566D01*
X136089433Y-100624003D01*
X136016446Y-100848631D01*
X135979500Y-101081902D01*
X133900500Y-101081902D01*
X133863553Y-100848631D01*
X133799013Y-100650000D01*
X133790568Y-100624008D01*
X133790566Y-100624005D01*
X133790566Y-100624003D01*
X133720865Y-100487209D01*
X133683343Y-100413567D01*
X133544517Y-100222490D01*
X133377510Y-100055483D01*
X133186433Y-99916657D01*
X132975996Y-99809433D01*
X132751368Y-99736446D01*
X132518097Y-99699500D01*
X132518092Y-99699500D01*
X132281908Y-99699500D01*
X132281903Y-99699500D01*
X132048631Y-99736446D01*
X131824003Y-99809433D01*
X131613566Y-99916657D01*
X131504550Y-99995862D01*
X131422490Y-100055483D01*
X131422488Y-100055485D01*
X131422487Y-100055485D01*
X131255485Y-100222487D01*
X131255485Y-100222488D01*
X131255483Y-100222490D01*
X131226258Y-100262715D01*
X131116657Y-100413566D01*
X131009433Y-100624003D01*
X130936446Y-100848631D01*
X130899500Y-101081902D01*
X124325970Y-101081902D01*
X124340700Y-101036567D01*
X124348589Y-101012289D01*
X124348589Y-101012288D01*
X124348590Y-101012285D01*
X124388000Y-100763462D01*
X124388000Y-100511538D01*
X124348590Y-100262715D01*
X124270741Y-100023121D01*
X124270739Y-100023118D01*
X124270739Y-100023116D01*
X124229247Y-99941684D01*
X124156370Y-99798655D01*
X124137452Y-99772617D01*
X124008298Y-99594850D01*
X124008294Y-99594845D01*
X123830154Y-99416705D01*
X123830149Y-99416701D01*
X123626348Y-99268632D01*
X123626347Y-99268631D01*
X123626345Y-99268630D01*
X123556247Y-99232913D01*
X123401883Y-99154260D01*
X123162285Y-99076410D01*
X122913462Y-99037000D01*
X122661538Y-99037000D01*
X122537126Y-99056705D01*
X122412714Y-99076410D01*
X122173116Y-99154260D01*
X121948651Y-99268632D01*
X121744850Y-99416701D01*
X121744845Y-99416705D01*
X121566705Y-99594845D01*
X121566701Y-99594850D01*
X121418632Y-99798651D01*
X121304260Y-100023116D01*
X121226410Y-100262714D01*
X121187000Y-100511538D01*
X114388000Y-100511538D01*
X114348590Y-100262715D01*
X114270741Y-100023121D01*
X114270739Y-100023118D01*
X114270739Y-100023116D01*
X114229247Y-99941684D01*
X114156370Y-99798655D01*
X114137452Y-99772617D01*
X114008298Y-99594850D01*
X114008294Y-99594845D01*
X113830154Y-99416705D01*
X113830149Y-99416701D01*
X113626348Y-99268632D01*
X113626347Y-99268631D01*
X113626345Y-99268630D01*
X113556247Y-99232913D01*
X113401883Y-99154260D01*
X113162285Y-99076410D01*
X112913462Y-99037000D01*
X112661538Y-99037000D01*
X112537126Y-99056705D01*
X112412714Y-99076410D01*
X112173116Y-99154260D01*
X111948651Y-99268632D01*
X111744850Y-99416701D01*
X111744845Y-99416705D01*
X111566705Y-99594845D01*
X111566701Y-99594850D01*
X111418632Y-99798651D01*
X111304260Y-100023116D01*
X111226410Y-100262714D01*
X111187000Y-100511538D01*
X93100500Y-100511538D01*
X93100500Y-92924500D01*
X93120185Y-92857461D01*
X93172989Y-92811706D01*
X93224500Y-92800500D01*
X189575500Y-92800500D01*
X189642539Y-92820185D01*
G37*
%TD.AperFunction*%
%TD*%
M02*
