%TF.GenerationSoftware,KiCad,Pcbnew,10.0.5*%
%TF.CreationDate,2026-10-06T22:57:02+05:30*%
%TF.ProjectId,Bridge Rectifire,42726964-6765-4205-9265-637469666972,rev?*%
%TF.SameCoordinates,Original*%
%TF.FileFunction,Copper,L1,Top*%
%TF.FilePolarity,Positive*%
%FSLAX46Y46*%
G04 Gerber Fmt 4.6, Leading zero omitted, Abs format (unit mm)*
G04 Created by KiCad (PCBNEW 10.0.5) date 2026-10-06 22:57:02*
%MOMM*%
%LPD*%
G01*
G04 APERTURE LIST*
G04 Aperture macros list*
%AMRoundRect*
0 Rectangle with rounded corners*
0 $1 Rounding radius*
0 $2 $3 $4 $5 $6 $7 $8 $9 X,Y pos of 4 corners*
0 Add a 4 corners polygon primitive as box body*
4,1,4,$2,$3,$4,$5,$6,$7,$8,$9,$2,$3,0*
0 Add four circle primitives for the rounded corners*
1,1,$1+$1,$2,$3*
1,1,$1+$1,$4,$5*
1,1,$1+$1,$6,$7*
1,1,$1+$1,$8,$9*
0 Add four rect primitives between the rounded corners*
20,1,$1+$1,$2,$3,$4,$5,0*
20,1,$1+$1,$4,$5,$6,$7,0*
20,1,$1+$1,$6,$7,$8,$9,0*
20,1,$1+$1,$8,$9,$2,$3,0*%
G04 Aperture macros list end*
%TA.AperFunction,ComponentPad*%
%ADD10R,2.200000X2.200000*%
%TD*%
%TA.AperFunction,ComponentPad*%
%ADD11C,2.200000*%
%TD*%
%TA.AperFunction,ComponentPad*%
%ADD12C,2.600000*%
%TD*%
%TA.AperFunction,ComponentPad*%
%ADD13RoundRect,0.250000X1.050000X-1.050000X1.050000X1.050000X-1.050000X1.050000X-1.050000X-1.050000X0*%
%TD*%
%TA.AperFunction,ComponentPad*%
%ADD14C,1.600000*%
%TD*%
%TA.AperFunction,ComponentPad*%
%ADD15RoundRect,0.250000X0.550000X-0.550000X0.550000X0.550000X-0.550000X0.550000X-0.550000X-0.550000X0*%
%TD*%
%TA.AperFunction,ComponentPad*%
%ADD16RoundRect,0.250000X-0.550000X-0.550000X0.550000X-0.550000X0.550000X0.550000X-0.550000X0.550000X0*%
%TD*%
%TA.AperFunction,ComponentPad*%
%ADD17R,2.300000X1.500000*%
%TD*%
%TA.AperFunction,ComponentPad*%
%ADD18O,2.300000X1.500000*%
%TD*%
%TA.AperFunction,ComponentPad*%
%ADD19RoundRect,0.250000X-1.050000X1.050000X-1.050000X-1.050000X1.050000X-1.050000X1.050000X1.050000X0*%
%TD*%
%TA.AperFunction,ComponentPad*%
%ADD20R,1.800000X1.800000*%
%TD*%
%TA.AperFunction,ComponentPad*%
%ADD21C,1.800000*%
%TD*%
%TA.AperFunction,ComponentPad*%
%ADD22R,2.000000X2.000000*%
%TD*%
%TA.AperFunction,ComponentPad*%
%ADD23O,2.000000X2.000000*%
%TD*%
%TA.AperFunction,Conductor*%
%ADD24C,1.000000*%
%TD*%
G04 APERTURE END LIST*
D10*
%TO.P,T1,1,AA_1*%
%TO.N,Net-(J2-Pin_2)*%
X122787500Y-113337500D03*
D11*
%TO.P,T1,2,AB_2*%
%TO.N,Net-(J2-Pin_1)*%
X122787500Y-100637500D03*
%TO.P,T1,3,SA_3*%
%TO.N,Net-(T1-SA)*%
X112787500Y-100637500D03*
%TO.P,T1,4,SB_4*%
%TO.N,Net-(T1-SB)*%
X112787500Y-113337500D03*
%TD*%
D12*
%TO.P,J1,2,Pin_2_2*%
%TO.N,GND*%
X183572500Y-104265000D03*
D13*
%TO.P,J1,1,Pin_1_1*%
%TO.N,Net-(J1-Pin_1)*%
X183572500Y-109345000D03*
%TD*%
D14*
%TO.P,C3,2*%
%TO.N,GND*%
X138450000Y-113400000D03*
D15*
%TO.P,C3,1*%
%TO.N,Net-(J1-Pin_1)*%
X138450000Y-117200000D03*
%TD*%
D14*
%TO.P,C4,2*%
%TO.N,GND*%
X148000000Y-113400000D03*
D15*
%TO.P,C4,1*%
%TO.N,Net-(J1-Pin_1)*%
X148000000Y-117200000D03*
%TD*%
D14*
%TO.P,C2,2*%
%TO.N,GND*%
X172197349Y-110600000D03*
D16*
%TO.P,C2,1*%
%TO.N,Net-(D1-+)*%
X168397349Y-110600000D03*
%TD*%
D17*
%TO.P,U1,1,IN_1*%
%TO.N,Net-(D1-+)*%
X149107500Y-104347500D03*
D18*
%TO.P,U1,2,GND_2*%
%TO.N,GND*%
X149107500Y-101807500D03*
%TO.P,U1,3,OUT_3*%
%TO.N,Net-(J1-Pin_1)*%
X149107500Y-99267500D03*
%TD*%
D14*
%TO.P,R1,1*%
%TO.N,Net-(J1-Pin_1)*%
X155155000Y-99100000D03*
%TO.P,R1,2*%
%TO.N,Net-(D2-A)*%
X162775000Y-99100000D03*
%TD*%
D19*
%TO.P,J2,1,Pin_1_1*%
%TO.N,Net-(J2-Pin_1)*%
X98627500Y-103755000D03*
D12*
%TO.P,J2,2,Pin_2_2*%
%TO.N,Net-(J2-Pin_2)*%
X98627500Y-108835000D03*
%TD*%
D20*
%TO.P,D2,1,K_1*%
%TO.N,GND*%
X157425000Y-107200000D03*
D21*
%TO.P,D2,2,A_2*%
%TO.N,Net-(D2-A)*%
X159965000Y-107200000D03*
%TD*%
D22*
%TO.P,D1,1,+_1*%
%TO.N,Net-(D1-+)*%
X137480000Y-106280000D03*
D23*
%TO.P,D1,2*%
%TO.N,Net-(T1-SA)*%
X137480000Y-101200000D03*
%TO.P,D1,3,-_3*%
%TO.N,GND*%
X132400000Y-101200000D03*
%TO.P,D1,4*%
%TO.N,Net-(T1-SB)*%
X132400000Y-106280000D03*
%TD*%
D16*
%TO.P,C1,1*%
%TO.N,Net-(D1-+)*%
X168397349Y-101050000D03*
D14*
%TO.P,C1,2*%
%TO.N,GND*%
X172197349Y-101050000D03*
%TD*%
%TO.N,Net-(J1-Pin_1)*%
D24*
X175717500Y-117200000D02*
X183572500Y-109345000D01*
X148000000Y-117200000D02*
X175717500Y-117200000D01*
%TO.N,Net-(D1-+)*%
X168397349Y-97897349D02*
X168397349Y-101050000D01*
X164900000Y-94400000D02*
X168397349Y-97897349D01*
X147000000Y-94400000D02*
X164900000Y-94400000D01*
X144400000Y-97000000D02*
X147000000Y-94400000D01*
X144400000Y-99640000D02*
X144400000Y-97000000D01*
X149107500Y-104347500D02*
X144400000Y-99640000D01*
X168397349Y-110600000D02*
X168397349Y-101050000D01*
%TO.N,GND*%
X169800000Y-114500000D02*
X172197349Y-112102651D01*
X169800000Y-114600000D02*
X169800000Y-114500000D01*
X172197349Y-112102651D02*
X172197349Y-110600000D01*
X164825000Y-114600000D02*
X169800000Y-114600000D01*
X157425000Y-107200000D02*
X164825000Y-114600000D01*
%TO.N,Net-(D2-A)*%
X162775000Y-104390000D02*
X159965000Y-107200000D01*
X162775000Y-99100000D02*
X162775000Y-104390000D01*
%TO.N,Net-(J1-Pin_1)*%
X154987500Y-99267500D02*
X155155000Y-99100000D01*
X149107500Y-99267500D02*
X154987500Y-99267500D01*
%TO.N,GND*%
X151225000Y-113400000D02*
X157425000Y-107200000D01*
X148000000Y-113400000D02*
X151225000Y-113400000D01*
X152032500Y-101807500D02*
X157425000Y-107200000D01*
X149107500Y-101807500D02*
X152032500Y-101807500D01*
X180357500Y-101050000D02*
X172197349Y-101050000D01*
X183572500Y-104265000D02*
X180357500Y-101050000D01*
%TO.N,Net-(J1-Pin_1)*%
X138450000Y-117200000D02*
X148000000Y-117200000D01*
%TO.N,GND*%
X138450000Y-113400000D02*
X148000000Y-113400000D01*
%TO.N,Net-(D1-+)*%
X147175000Y-106280000D02*
X149107500Y-104347500D01*
X137480000Y-106280000D02*
X147175000Y-106280000D01*
%TO.N,GND*%
X134200000Y-106200000D02*
X138450000Y-110450000D01*
X134200000Y-103000000D02*
X134200000Y-106200000D01*
X132400000Y-101200000D02*
X134200000Y-103000000D01*
X138450000Y-110450000D02*
X138450000Y-113400000D01*
%TO.N,Net-(T1-SB)*%
X124720000Y-106280000D02*
X132400000Y-106280000D01*
X117662500Y-113337500D02*
X124720000Y-106280000D01*
X112787500Y-113337500D02*
X117662500Y-113337500D01*
%TO.N,Net-(T1-SA)*%
X123500000Y-103300000D02*
X129200000Y-97600000D01*
X129200000Y-97600000D02*
X133880000Y-97600000D01*
X112787500Y-100637500D02*
X115450000Y-103300000D01*
X115450000Y-103300000D02*
X123500000Y-103300000D01*
X133880000Y-97600000D02*
X137480000Y-101200000D01*
%TO.N,Net-(J2-Pin_2)*%
X119225000Y-116900000D02*
X122787500Y-113337500D01*
X106692500Y-116900000D02*
X119225000Y-116900000D01*
X98627500Y-108835000D02*
X106692500Y-116900000D01*
%TO.N,Net-(J2-Pin_1)*%
X103300000Y-96900000D02*
X119050000Y-96900000D01*
X119050000Y-96900000D02*
X122787500Y-100637500D01*
X98627500Y-101572500D02*
X103300000Y-96900000D01*
X98627500Y-103755000D02*
X98627500Y-101572500D01*
%TD*%
%TA.AperFunction,Conductor*%
%TO.N,GND*%
G36*
X189642539Y-92820185D02*
G01*
X189688294Y-92872989D01*
X189699500Y-92924500D01*
X189699500Y-121275500D01*
X189679815Y-121342539D01*
X189627011Y-121388294D01*
X189575500Y-121399500D01*
X93224500Y-121399500D01*
X93157461Y-121379815D01*
X93111706Y-121327011D01*
X93100500Y-121275500D01*
X93100500Y-108716995D01*
X96827000Y-108716995D01*
X96827000Y-108953004D01*
X96827001Y-108953020D01*
X96857806Y-109187010D01*
X96918894Y-109414993D01*
X97009214Y-109633045D01*
X97009219Y-109633056D01*
X97080177Y-109755957D01*
X97127227Y-109837450D01*
X97127229Y-109837453D01*
X97127230Y-109837454D01*
X97270906Y-110024697D01*
X97270912Y-110024704D01*
X97437795Y-110191587D01*
X97437802Y-110191593D01*
X97484283Y-110227259D01*
X97625050Y-110335273D01*
X97756418Y-110411118D01*
X97829443Y-110453280D01*
X97829448Y-110453282D01*
X97829451Y-110453284D01*
X98047507Y-110543606D01*
X98275486Y-110604693D01*
X98509489Y-110635500D01*
X98509496Y-110635500D01*
X98745504Y-110635500D01*
X98745511Y-110635500D01*
X98921326Y-110612353D01*
X98990359Y-110623118D01*
X99025190Y-110647610D01*
X105915360Y-117537781D01*
X105915361Y-117537782D01*
X106054718Y-117677139D01*
X106218586Y-117786632D01*
X106325245Y-117830811D01*
X106400664Y-117862051D01*
X106593954Y-117900499D01*
X106593957Y-117900500D01*
X106593959Y-117900500D01*
X119323542Y-117900500D01*
X119342870Y-117896655D01*
X119420188Y-117881275D01*
X119516836Y-117862051D01*
X119575428Y-117837781D01*
X119698914Y-117786632D01*
X119862782Y-117677139D01*
X120002139Y-117537782D01*
X120002140Y-117537779D01*
X120009206Y-117530714D01*
X120009209Y-117530710D01*
X120939936Y-116599983D01*
X137149500Y-116599983D01*
X137149500Y-117800001D01*
X137149501Y-117800018D01*
X137160000Y-117902796D01*
X137160001Y-117902799D01*
X137215185Y-118069331D01*
X137215186Y-118069334D01*
X137307288Y-118218656D01*
X137431344Y-118342712D01*
X137580666Y-118434814D01*
X137747203Y-118489999D01*
X137849991Y-118500500D01*
X139050008Y-118500499D01*
X139152797Y-118489999D01*
X139319334Y-118434814D01*
X139468656Y-118342712D01*
X139574550Y-118236818D01*
X139635873Y-118203334D01*
X139662231Y-118200500D01*
X146787769Y-118200500D01*
X146854808Y-118220185D01*
X146875450Y-118236818D01*
X146981344Y-118342712D01*
X147130666Y-118434814D01*
X147297203Y-118489999D01*
X147399991Y-118500500D01*
X148600008Y-118500499D01*
X148702797Y-118489999D01*
X148869334Y-118434814D01*
X149018656Y-118342712D01*
X149124550Y-118236818D01*
X149185873Y-118203334D01*
X149212231Y-118200500D01*
X175816042Y-118200500D01*
X175835370Y-118196655D01*
X175912688Y-118181275D01*
X176009336Y-118162051D01*
X176062665Y-118139961D01*
X176191414Y-118086632D01*
X176355282Y-117977139D01*
X176494639Y-117837782D01*
X176494639Y-117837780D01*
X176504847Y-117827573D01*
X176504848Y-117827570D01*
X183150602Y-111181818D01*
X183211925Y-111148333D01*
X183238283Y-111145499D01*
X184672502Y-111145499D01*
X184672508Y-111145499D01*
X184775297Y-111134999D01*
X184941834Y-111079814D01*
X185091156Y-110987712D01*
X185215212Y-110863656D01*
X185307314Y-110714334D01*
X185362499Y-110547797D01*
X185373000Y-110445009D01*
X185372999Y-108244992D01*
X185362499Y-108142203D01*
X185307314Y-107975666D01*
X185215212Y-107826344D01*
X185091156Y-107702288D01*
X184941834Y-107610186D01*
X184775297Y-107555001D01*
X184775295Y-107555000D01*
X184672510Y-107544500D01*
X182472498Y-107544500D01*
X182472481Y-107544501D01*
X182369703Y-107555000D01*
X182369700Y-107555001D01*
X182203168Y-107610185D01*
X182203163Y-107610187D01*
X182053842Y-107702289D01*
X181929789Y-107826342D01*
X181837687Y-107975663D01*
X181837686Y-107975666D01*
X181782501Y-108142203D01*
X181782501Y-108142204D01*
X181782500Y-108142204D01*
X181772000Y-108244983D01*
X181772000Y-109679216D01*
X181752315Y-109746255D01*
X181735681Y-109766897D01*
X175339399Y-116163181D01*
X175278076Y-116196666D01*
X175251718Y-116199500D01*
X149212231Y-116199500D01*
X149145192Y-116179815D01*
X149124550Y-116163182D01*
X149124549Y-116163181D01*
X149018656Y-116057288D01*
X148869334Y-115965186D01*
X148702797Y-115910001D01*
X148702795Y-115910000D01*
X148600010Y-115899500D01*
X147399998Y-115899500D01*
X147399981Y-115899501D01*
X147297203Y-115910000D01*
X147297200Y-115910001D01*
X147130668Y-115965185D01*
X147130663Y-115965187D01*
X146981345Y-116057287D01*
X146875450Y-116163182D01*
X146814127Y-116196666D01*
X146787769Y-116199500D01*
X139662231Y-116199500D01*
X139595192Y-116179815D01*
X139574550Y-116163182D01*
X139574549Y-116163181D01*
X139468656Y-116057288D01*
X139319334Y-115965186D01*
X139152797Y-115910001D01*
X139152795Y-115910000D01*
X139050010Y-115899500D01*
X137849998Y-115899500D01*
X137849981Y-115899501D01*
X137747203Y-115910000D01*
X137747200Y-115910001D01*
X137580668Y-115965185D01*
X137580663Y-115965187D01*
X137431342Y-116057289D01*
X137307289Y-116181342D01*
X137215187Y-116330663D01*
X137215186Y-116330666D01*
X137160001Y-116497203D01*
X137160001Y-116497204D01*
X137160000Y-116497204D01*
X137149500Y-116599983D01*
X120939936Y-116599983D01*
X122565601Y-114974318D01*
X122626924Y-114940833D01*
X122653282Y-114937999D01*
X123935371Y-114937999D01*
X123935372Y-114937999D01*
X123994983Y-114931591D01*
X124129831Y-114881296D01*
X124245046Y-114795046D01*
X124331296Y-114679831D01*
X124381591Y-114544983D01*
X124388000Y-114485373D01*
X124387999Y-113297682D01*
X137150000Y-113297682D01*
X137150000Y-113502317D01*
X137182009Y-113704417D01*
X137245244Y-113899031D01*
X137338141Y-114081350D01*
X137338147Y-114081359D01*
X137370523Y-114125921D01*
X137370524Y-114125922D01*
X138050000Y-113446446D01*
X138050000Y-113452661D01*
X138077259Y-113554394D01*
X138129920Y-113645606D01*
X138204394Y-113720080D01*
X138295606Y-113772741D01*
X138397339Y-113800000D01*
X138403553Y-113800000D01*
X137724076Y-114479474D01*
X137768650Y-114511859D01*
X137950968Y-114604755D01*
X138145582Y-114667990D01*
X138347683Y-114700000D01*
X138552317Y-114700000D01*
X138754417Y-114667990D01*
X138949031Y-114604755D01*
X139131349Y-114511859D01*
X139175921Y-114479474D01*
X138496447Y-113800000D01*
X138502661Y-113800000D01*
X138604394Y-113772741D01*
X138695606Y-113720080D01*
X138770080Y-113645606D01*
X138822741Y-113554394D01*
X138850000Y-113452661D01*
X138850000Y-113446447D01*
X139529474Y-114125921D01*
X139561859Y-114081349D01*
X139654755Y-113899031D01*
X139717990Y-113704417D01*
X139750000Y-113502317D01*
X139750000Y-113297682D01*
X146700000Y-113297682D01*
X146700000Y-113502317D01*
X146732009Y-113704417D01*
X146795244Y-113899031D01*
X146888141Y-114081350D01*
X146888147Y-114081359D01*
X146920523Y-114125921D01*
X146920524Y-114125922D01*
X147600000Y-113446446D01*
X147600000Y-113452661D01*
X147627259Y-113554394D01*
X147679920Y-113645606D01*
X147754394Y-113720080D01*
X147845606Y-113772741D01*
X147947339Y-113800000D01*
X147953553Y-113800000D01*
X147274076Y-114479474D01*
X147318650Y-114511859D01*
X147500968Y-114604755D01*
X147695582Y-114667990D01*
X147897683Y-114700000D01*
X148102317Y-114700000D01*
X148304417Y-114667990D01*
X148499031Y-114604755D01*
X148681349Y-114511859D01*
X148725921Y-114479474D01*
X148046447Y-113800000D01*
X148052661Y-113800000D01*
X148154394Y-113772741D01*
X148245606Y-113720080D01*
X148320080Y-113645606D01*
X148372741Y-113554394D01*
X148400000Y-113452661D01*
X148400000Y-113446447D01*
X149079474Y-114125921D01*
X149111859Y-114081349D01*
X149204755Y-113899031D01*
X149267990Y-113704417D01*
X149300000Y-113502317D01*
X149300000Y-113297682D01*
X149267990Y-113095582D01*
X149204755Y-112900968D01*
X149111859Y-112718650D01*
X149079474Y-112674077D01*
X149079474Y-112674076D01*
X148400000Y-113353551D01*
X148400000Y-113347339D01*
X148372741Y-113245606D01*
X148320080Y-113154394D01*
X148245606Y-113079920D01*
X148154394Y-113027259D01*
X148052661Y-113000000D01*
X148046446Y-113000000D01*
X148725922Y-112320524D01*
X148725921Y-112320523D01*
X148681359Y-112288147D01*
X148681350Y-112288141D01*
X148499031Y-112195244D01*
X148304417Y-112132009D01*
X148102317Y-112100000D01*
X147897683Y-112100000D01*
X147695582Y-112132009D01*
X147500968Y-112195244D01*
X147318644Y-112288143D01*
X147274077Y-112320523D01*
X147274077Y-112320524D01*
X147953554Y-113000000D01*
X147947339Y-113000000D01*
X147845606Y-113027259D01*
X147754394Y-113079920D01*
X147679920Y-113154394D01*
X147627259Y-113245606D01*
X147600000Y-113347339D01*
X147600000Y-113353553D01*
X146920524Y-112674077D01*
X146920523Y-112674077D01*
X146888143Y-112718644D01*
X146795244Y-112900968D01*
X146732009Y-113095582D01*
X146700000Y-113297682D01*
X139750000Y-113297682D01*
X139717990Y-113095582D01*
X139654755Y-112900968D01*
X139561859Y-112718650D01*
X139529474Y-112674077D01*
X139529474Y-112674076D01*
X138850000Y-113353551D01*
X138850000Y-113347339D01*
X138822741Y-113245606D01*
X138770080Y-113154394D01*
X138695606Y-113079920D01*
X138604394Y-113027259D01*
X138502661Y-113000000D01*
X138496446Y-113000000D01*
X139175922Y-112320524D01*
X139175921Y-112320523D01*
X139131359Y-112288147D01*
X139131350Y-112288141D01*
X138949031Y-112195244D01*
X138754417Y-112132009D01*
X138552317Y-112100000D01*
X138347683Y-112100000D01*
X138145582Y-112132009D01*
X137950968Y-112195244D01*
X137768644Y-112288143D01*
X137724077Y-112320523D01*
X137724077Y-112320524D01*
X138403554Y-113000000D01*
X138397339Y-113000000D01*
X138295606Y-113027259D01*
X138204394Y-113079920D01*
X138129920Y-113154394D01*
X138077259Y-113245606D01*
X138050000Y-113347339D01*
X138050000Y-113353553D01*
X137370524Y-112674077D01*
X137370523Y-112674077D01*
X137338143Y-112718644D01*
X137245244Y-112900968D01*
X137182009Y-113095582D01*
X137150000Y-113297682D01*
X124387999Y-113297682D01*
X124387999Y-112189628D01*
X124381591Y-112130017D01*
X124376624Y-112116701D01*
X124331297Y-111995171D01*
X124331293Y-111995164D01*
X124245047Y-111879955D01*
X124245044Y-111879952D01*
X124129835Y-111793706D01*
X124129828Y-111793702D01*
X123994982Y-111743408D01*
X123994983Y-111743408D01*
X123935383Y-111737001D01*
X123935381Y-111737000D01*
X123935373Y-111737000D01*
X123935364Y-111737000D01*
X121639629Y-111737000D01*
X121639623Y-111737001D01*
X121580016Y-111743408D01*
X121445171Y-111793702D01*
X121445164Y-111793706D01*
X121329955Y-111879952D01*
X121329952Y-111879955D01*
X121243706Y-111995164D01*
X121243702Y-111995171D01*
X121193408Y-112130017D01*
X121187001Y-112189616D01*
X121187001Y-112189623D01*
X121187000Y-112189635D01*
X121187000Y-113471717D01*
X121167315Y-113538756D01*
X121150681Y-113559398D01*
X118846899Y-115863181D01*
X118785576Y-115896666D01*
X118759218Y-115899500D01*
X107158283Y-115899500D01*
X107091244Y-115879815D01*
X107070602Y-115863181D01*
X104501768Y-113294347D01*
X104418959Y-113211538D01*
X111187000Y-113211538D01*
X111187000Y-113463462D01*
X111201402Y-113554394D01*
X111226410Y-113712285D01*
X111304260Y-113951883D01*
X111418632Y-114176348D01*
X111566701Y-114380149D01*
X111566705Y-114380154D01*
X111744845Y-114558294D01*
X111744850Y-114558298D01*
X111895829Y-114667990D01*
X111948655Y-114706370D01*
X112091684Y-114779247D01*
X112173116Y-114820739D01*
X112173118Y-114820739D01*
X112173121Y-114820741D01*
X112412715Y-114898590D01*
X112661538Y-114938000D01*
X112661539Y-114938000D01*
X112913461Y-114938000D01*
X112913462Y-114938000D01*
X113162285Y-114898590D01*
X113401879Y-114820741D01*
X113626345Y-114706370D01*
X113830156Y-114558293D01*
X114008293Y-114380156D01*
X114008293Y-114380155D01*
X114011738Y-114376711D01*
X114012812Y-114377785D01*
X114065680Y-114343275D01*
X114101462Y-114338000D01*
X117761042Y-114338000D01*
X117780370Y-114334155D01*
X117857688Y-114318775D01*
X117954336Y-114299551D01*
X118007665Y-114277461D01*
X118136414Y-114224132D01*
X118300282Y-114114639D01*
X118439639Y-113975282D01*
X118439640Y-113975279D01*
X118446706Y-113968214D01*
X118446708Y-113968210D01*
X125098101Y-107316819D01*
X125159424Y-107283334D01*
X125185782Y-107280500D01*
X131227111Y-107280500D01*
X131294150Y-107300185D01*
X131314792Y-107316819D01*
X131422490Y-107424517D01*
X131613567Y-107563343D01*
X131705500Y-107610185D01*
X131824003Y-107670566D01*
X131824005Y-107670566D01*
X131824008Y-107670568D01*
X131921632Y-107702288D01*
X132048631Y-107743553D01*
X132281903Y-107780500D01*
X132281908Y-107780500D01*
X132518097Y-107780500D01*
X132751368Y-107743553D01*
X132769680Y-107737603D01*
X132975992Y-107670568D01*
X133186433Y-107563343D01*
X133377510Y-107424517D01*
X133544517Y-107257510D01*
X133683343Y-107066433D01*
X133790568Y-106855992D01*
X133863553Y-106631368D01*
X133900500Y-106398097D01*
X133900500Y-106161902D01*
X133863553Y-105928631D01*
X133821595Y-105799500D01*
X133790568Y-105704008D01*
X133790566Y-105704005D01*
X133790566Y-105704003D01*
X133709548Y-105544998D01*
X133683343Y-105493567D01*
X133544517Y-105302490D01*
X133474162Y-105232135D01*
X135979500Y-105232135D01*
X135979500Y-107327870D01*
X135979501Y-107327876D01*
X135985908Y-107387483D01*
X136036202Y-107522328D01*
X136036206Y-107522335D01*
X136122452Y-107637544D01*
X136122455Y-107637547D01*
X136237664Y-107723793D01*
X136237671Y-107723797D01*
X136372517Y-107774091D01*
X136372516Y-107774091D01*
X136379444Y-107774835D01*
X136432127Y-107780500D01*
X138527872Y-107780499D01*
X138587483Y-107774091D01*
X138722331Y-107723796D01*
X138837546Y-107637546D01*
X138923796Y-107522331D01*
X138974091Y-107387483D01*
X138974091Y-107387481D01*
X138975874Y-107379938D01*
X138978146Y-107380474D01*
X139000429Y-107326688D01*
X139057823Y-107286843D01*
X139096976Y-107280500D01*
X147273543Y-107280500D01*
X147291033Y-107277021D01*
X147320219Y-107271215D01*
X147389118Y-107257510D01*
X147466836Y-107242051D01*
X147520165Y-107219961D01*
X147648914Y-107166632D01*
X147812782Y-107057139D01*
X147952139Y-106917782D01*
X147952139Y-106917780D01*
X147962347Y-106907573D01*
X147962348Y-106907570D01*
X148617764Y-106252155D01*
X156025000Y-106252155D01*
X156025000Y-106950000D01*
X157049722Y-106950000D01*
X157005667Y-107026306D01*
X156975000Y-107140756D01*
X156975000Y-107259244D01*
X157005667Y-107373694D01*
X157049722Y-107450000D01*
X156025000Y-107450000D01*
X156025000Y-108147844D01*
X156031401Y-108207372D01*
X156031403Y-108207379D01*
X156081645Y-108342086D01*
X156081649Y-108342093D01*
X156167809Y-108457187D01*
X156167812Y-108457190D01*
X156282906Y-108543350D01*
X156282913Y-108543354D01*
X156417620Y-108593596D01*
X156417627Y-108593598D01*
X156477155Y-108599999D01*
X156477172Y-108600000D01*
X157175000Y-108600000D01*
X157175000Y-107575277D01*
X157251306Y-107619333D01*
X157365756Y-107650000D01*
X157484244Y-107650000D01*
X157598694Y-107619333D01*
X157675000Y-107575277D01*
X157675000Y-108600000D01*
X158372828Y-108600000D01*
X158372844Y-108599999D01*
X158432372Y-108593598D01*
X158432379Y-108593596D01*
X158567086Y-108543354D01*
X158567093Y-108543350D01*
X158682187Y-108457190D01*
X158682190Y-108457187D01*
X158768350Y-108342093D01*
X158768354Y-108342086D01*
X158798213Y-108262031D01*
X158840084Y-108206097D01*
X158905548Y-108181680D01*
X158973821Y-108196531D01*
X159002076Y-108217683D01*
X159052636Y-108268243D01*
X159052641Y-108268247D01*
X159208192Y-108381260D01*
X159230978Y-108397815D01*
X159347501Y-108457187D01*
X159427393Y-108497895D01*
X159427396Y-108497896D01*
X159532221Y-108531955D01*
X159637049Y-108566015D01*
X159854778Y-108600500D01*
X159854779Y-108600500D01*
X160075221Y-108600500D01*
X160075222Y-108600500D01*
X160292951Y-108566015D01*
X160502606Y-108497895D01*
X160699022Y-108397815D01*
X160877365Y-108268242D01*
X161033242Y-108112365D01*
X161162815Y-107934022D01*
X161262895Y-107737606D01*
X161331015Y-107527951D01*
X161365500Y-107310222D01*
X161365500Y-107265781D01*
X161385185Y-107198742D01*
X161401814Y-107178105D01*
X163412778Y-105167141D01*
X163412782Y-105167139D01*
X163552139Y-105027782D01*
X163661632Y-104863914D01*
X163737051Y-104681835D01*
X163775500Y-104488541D01*
X163775500Y-99975761D01*
X163795185Y-99908722D01*
X163799165Y-99902899D01*
X163887287Y-99781610D01*
X163980220Y-99599219D01*
X164043477Y-99404534D01*
X164075500Y-99202352D01*
X164075500Y-98997648D01*
X164043477Y-98795466D01*
X163980220Y-98600781D01*
X163980218Y-98600778D01*
X163980218Y-98600776D01*
X163904846Y-98452852D01*
X163887287Y-98418390D01*
X163879556Y-98407749D01*
X163766971Y-98252786D01*
X163622213Y-98108028D01*
X163456613Y-97987715D01*
X163456612Y-97987714D01*
X163456610Y-97987713D01*
X163399653Y-97958691D01*
X163274223Y-97894781D01*
X163079534Y-97831522D01*
X162904995Y-97803878D01*
X162877352Y-97799500D01*
X162672648Y-97799500D01*
X162648329Y-97803351D01*
X162470465Y-97831522D01*
X162275776Y-97894781D01*
X162093386Y-97987715D01*
X161927786Y-98108028D01*
X161783028Y-98252786D01*
X161662715Y-98418386D01*
X161569781Y-98600776D01*
X161506522Y-98795465D01*
X161474500Y-98997648D01*
X161474500Y-99202351D01*
X161506522Y-99404534D01*
X161569781Y-99599223D01*
X161645346Y-99747525D01*
X161662713Y-99781610D01*
X161750819Y-99902877D01*
X161774298Y-99968681D01*
X161774500Y-99975761D01*
X161774500Y-103924218D01*
X161754815Y-103991257D01*
X161738181Y-104011899D01*
X159986899Y-105763181D01*
X159925576Y-105796666D01*
X159899218Y-105799500D01*
X159854778Y-105799500D01*
X159782201Y-105810995D01*
X159637047Y-105833985D01*
X159427396Y-105902103D01*
X159427393Y-105902104D01*
X159230974Y-106002187D01*
X159052641Y-106131752D01*
X159052636Y-106131756D01*
X159002075Y-106182317D01*
X158940752Y-106215801D01*
X158871060Y-106210816D01*
X158815127Y-106168945D01*
X158798213Y-106137968D01*
X158768354Y-106057913D01*
X158768350Y-106057906D01*
X158682190Y-105942812D01*
X158682187Y-105942809D01*
X158567093Y-105856649D01*
X158567086Y-105856645D01*
X158432379Y-105806403D01*
X158432372Y-105806401D01*
X158372844Y-105800000D01*
X157675000Y-105800000D01*
X157675000Y-106824722D01*
X157598694Y-106780667D01*
X157484244Y-106750000D01*
X157365756Y-106750000D01*
X157251306Y-106780667D01*
X157175000Y-106824722D01*
X157175000Y-105800000D01*
X156477155Y-105800000D01*
X156417627Y-105806401D01*
X156417620Y-105806403D01*
X156282913Y-105856645D01*
X156282906Y-105856649D01*
X156167812Y-105942809D01*
X156167809Y-105942812D01*
X156081649Y-106057906D01*
X156081645Y-106057913D01*
X156031403Y-106192620D01*
X156031401Y-106192627D01*
X156025000Y-106252155D01*
X148617764Y-106252155D01*
X149235602Y-105634318D01*
X149296925Y-105600833D01*
X149323283Y-105597999D01*
X150305371Y-105597999D01*
X150305372Y-105597999D01*
X150364983Y-105591591D01*
X150499831Y-105541296D01*
X150615046Y-105455046D01*
X150701296Y-105339831D01*
X150751591Y-105204983D01*
X150758000Y-105145373D01*
X150757999Y-103549628D01*
X150751591Y-103490017D01*
X150743073Y-103467180D01*
X150701297Y-103355171D01*
X150701293Y-103355164D01*
X150615047Y-103239955D01*
X150615044Y-103239952D01*
X150499835Y-103153706D01*
X150499828Y-103153702D01*
X150364982Y-103103408D01*
X150364983Y-103103408D01*
X150305383Y-103097001D01*
X150305381Y-103097000D01*
X150305373Y-103097000D01*
X150305365Y-103097000D01*
X150240916Y-103097000D01*
X150173877Y-103077315D01*
X150128122Y-103024511D01*
X150118178Y-102955353D01*
X150147203Y-102891797D01*
X150168030Y-102872682D01*
X150321821Y-102760944D01*
X150460944Y-102621821D01*
X150576595Y-102462643D01*
X150665918Y-102287337D01*
X150726718Y-102100216D01*
X150733484Y-102057500D01*
X149540512Y-102057500D01*
X149573425Y-102000493D01*
X149607500Y-101873326D01*
X149607500Y-101741674D01*
X149573425Y-101614507D01*
X149540512Y-101557500D01*
X150733484Y-101557500D01*
X150726718Y-101514783D01*
X150665918Y-101327662D01*
X150576595Y-101152356D01*
X150460944Y-100993178D01*
X150321821Y-100854055D01*
X150162643Y-100738404D01*
X149985735Y-100648265D01*
X149934939Y-100600290D01*
X149918144Y-100532469D01*
X149940681Y-100466335D01*
X149985736Y-100427295D01*
X149987522Y-100426384D01*
X149987525Y-100426384D01*
X150162905Y-100337024D01*
X150180726Y-100324076D01*
X150225314Y-100291682D01*
X150291120Y-100268202D01*
X150298199Y-100268000D01*
X154552962Y-100268000D01*
X154609257Y-100281515D01*
X154655776Y-100305218D01*
X154655778Y-100305218D01*
X154655781Y-100305220D01*
X154713814Y-100324076D01*
X154850465Y-100368477D01*
X154951557Y-100384488D01*
X155052648Y-100400500D01*
X155052649Y-100400500D01*
X155257351Y-100400500D01*
X155257352Y-100400500D01*
X155459534Y-100368477D01*
X155654219Y-100305220D01*
X155836610Y-100212287D01*
X155972010Y-100113914D01*
X156002213Y-100091971D01*
X156002215Y-100091968D01*
X156002219Y-100091966D01*
X156146966Y-99947219D01*
X156146968Y-99947215D01*
X156146971Y-99947213D01*
X156215635Y-99852703D01*
X156267287Y-99781610D01*
X156360220Y-99599219D01*
X156423477Y-99404534D01*
X156455500Y-99202352D01*
X156455500Y-98997648D01*
X156423477Y-98795466D01*
X156360220Y-98600781D01*
X156360218Y-98600778D01*
X156360218Y-98600776D01*
X156284846Y-98452852D01*
X156267287Y-98418390D01*
X156259556Y-98407749D01*
X156146971Y-98252786D01*
X156002213Y-98108028D01*
X155836613Y-97987715D01*
X155836612Y-97987714D01*
X155836610Y-97987713D01*
X155779653Y-97958691D01*
X155654223Y-97894781D01*
X155459534Y-97831522D01*
X155284995Y-97803878D01*
X155257352Y-97799500D01*
X155052648Y-97799500D01*
X155028329Y-97803351D01*
X154850465Y-97831522D01*
X154655776Y-97894781D01*
X154473386Y-97987715D01*
X154307788Y-98108027D01*
X154185133Y-98230682D01*
X154123810Y-98264166D01*
X154097452Y-98267000D01*
X150298199Y-98267000D01*
X150231160Y-98247315D01*
X150225314Y-98243318D01*
X150162908Y-98197978D01*
X150162907Y-98197977D01*
X150162905Y-98197976D01*
X150108136Y-98170069D01*
X149987529Y-98108617D01*
X149800326Y-98047790D01*
X149605922Y-98017000D01*
X149605917Y-98017000D01*
X148609083Y-98017000D01*
X148609078Y-98017000D01*
X148414673Y-98047790D01*
X148227470Y-98108617D01*
X148052094Y-98197976D01*
X148007079Y-98230682D01*
X147892854Y-98313672D01*
X147892852Y-98313674D01*
X147892851Y-98313674D01*
X147753674Y-98452851D01*
X147753674Y-98452852D01*
X147753672Y-98452854D01*
X147703985Y-98521241D01*
X147637976Y-98612094D01*
X147548617Y-98787470D01*
X147487790Y-98974673D01*
X147457000Y-99169077D01*
X147457000Y-99365922D01*
X147487790Y-99560326D01*
X147548617Y-99747529D01*
X147635011Y-99917085D01*
X147637976Y-99922905D01*
X147753672Y-100082146D01*
X147892854Y-100221328D01*
X148008318Y-100305218D01*
X148052096Y-100337025D01*
X148229263Y-100427295D01*
X148280060Y-100475269D01*
X148296855Y-100543090D01*
X148274318Y-100609225D01*
X148229264Y-100648265D01*
X148052356Y-100738404D01*
X147893178Y-100854055D01*
X147754055Y-100993178D01*
X147638402Y-101152359D01*
X147610868Y-101206397D01*
X147562893Y-101257193D01*
X147495072Y-101273987D01*
X147428937Y-101251449D01*
X147412703Y-101237782D01*
X145436819Y-99261898D01*
X145403334Y-99200575D01*
X145400500Y-99174217D01*
X145400500Y-97465782D01*
X145420185Y-97398743D01*
X145436819Y-97378101D01*
X147378102Y-95436819D01*
X147439425Y-95403334D01*
X147465783Y-95400500D01*
X164434218Y-95400500D01*
X164501257Y-95420185D01*
X164521899Y-95436819D01*
X167360530Y-98275450D01*
X167394015Y-98336773D01*
X167396849Y-98363131D01*
X167396849Y-99837769D01*
X167377164Y-99904808D01*
X167360531Y-99925450D01*
X167254636Y-100031345D01*
X167162536Y-100180663D01*
X167162534Y-100180668D01*
X167148676Y-100222490D01*
X167107350Y-100347203D01*
X167107350Y-100347204D01*
X167107349Y-100347204D01*
X167096849Y-100449983D01*
X167096849Y-101650001D01*
X167096850Y-101650018D01*
X167107349Y-101752796D01*
X167107350Y-101752799D01*
X167162534Y-101919331D01*
X167162536Y-101919336D01*
X167177482Y-101943567D01*
X167252391Y-102065015D01*
X167254638Y-102068657D01*
X167360530Y-102174549D01*
X167394015Y-102235872D01*
X167396849Y-102262230D01*
X167396849Y-109387769D01*
X167377164Y-109454808D01*
X167360531Y-109475450D01*
X167254636Y-109581345D01*
X167162536Y-109730663D01*
X167162535Y-109730666D01*
X167107350Y-109897203D01*
X167107350Y-109897204D01*
X167107349Y-109897204D01*
X167096849Y-109999983D01*
X167096849Y-111200001D01*
X167096850Y-111200018D01*
X167107349Y-111302796D01*
X167107350Y-111302799D01*
X167162534Y-111469331D01*
X167162535Y-111469334D01*
X167254637Y-111618656D01*
X167378693Y-111742712D01*
X167528015Y-111834814D01*
X167694552Y-111889999D01*
X167797340Y-111900500D01*
X168997357Y-111900499D01*
X169100146Y-111889999D01*
X169266683Y-111834814D01*
X169416005Y-111742712D01*
X169540061Y-111618656D01*
X169632163Y-111469334D01*
X169687348Y-111302797D01*
X169697849Y-111200009D01*
X169697848Y-110497682D01*
X170897349Y-110497682D01*
X170897349Y-110702317D01*
X170929358Y-110904417D01*
X170992593Y-111099031D01*
X171085490Y-111281350D01*
X171085496Y-111281359D01*
X171117872Y-111325921D01*
X171117873Y-111325922D01*
X171797349Y-110646446D01*
X171797349Y-110652661D01*
X171824608Y-110754394D01*
X171877269Y-110845606D01*
X171951743Y-110920080D01*
X172042955Y-110972741D01*
X172144688Y-111000000D01*
X172150902Y-111000000D01*
X171471425Y-111679474D01*
X171515999Y-111711859D01*
X171698317Y-111804755D01*
X171892931Y-111867990D01*
X172095032Y-111900000D01*
X172299666Y-111900000D01*
X172501766Y-111867990D01*
X172696380Y-111804755D01*
X172878698Y-111711859D01*
X172923270Y-111679474D01*
X172243796Y-111000000D01*
X172250010Y-111000000D01*
X172351743Y-110972741D01*
X172442955Y-110920080D01*
X172517429Y-110845606D01*
X172570090Y-110754394D01*
X172597349Y-110652661D01*
X172597349Y-110646447D01*
X173276823Y-111325921D01*
X173309208Y-111281349D01*
X173402104Y-111099031D01*
X173465339Y-110904417D01*
X173497349Y-110702317D01*
X173497349Y-110497682D01*
X173465339Y-110295582D01*
X173402104Y-110100968D01*
X173309208Y-109918650D01*
X173276823Y-109874077D01*
X173276823Y-109874076D01*
X172597349Y-110553551D01*
X172597349Y-110547339D01*
X172570090Y-110445606D01*
X172517429Y-110354394D01*
X172442955Y-110279920D01*
X172351743Y-110227259D01*
X172250010Y-110200000D01*
X172243795Y-110200000D01*
X172923271Y-109520524D01*
X172923270Y-109520523D01*
X172878708Y-109488147D01*
X172878699Y-109488141D01*
X172696380Y-109395244D01*
X172501766Y-109332009D01*
X172299666Y-109300000D01*
X172095032Y-109300000D01*
X171892931Y-109332009D01*
X171698317Y-109395244D01*
X171515993Y-109488143D01*
X171471426Y-109520523D01*
X171471426Y-109520524D01*
X172150903Y-110200000D01*
X172144688Y-110200000D01*
X172042955Y-110227259D01*
X171951743Y-110279920D01*
X171877269Y-110354394D01*
X171824608Y-110445606D01*
X171797349Y-110547339D01*
X171797349Y-110553553D01*
X171117873Y-109874077D01*
X171117872Y-109874077D01*
X171085492Y-109918644D01*
X170992593Y-110100968D01*
X170929358Y-110295582D01*
X170897349Y-110497682D01*
X169697848Y-110497682D01*
X169697848Y-109999992D01*
X169687348Y-109897203D01*
X169632163Y-109730666D01*
X169540061Y-109581344D01*
X169430975Y-109472258D01*
X169428021Y-109468839D01*
X169415346Y-109440982D01*
X169400683Y-109414127D01*
X169399926Y-109407090D01*
X169399086Y-109405243D01*
X169399454Y-109402703D01*
X169397849Y-109387769D01*
X169397849Y-104147014D01*
X181772500Y-104147014D01*
X181772500Y-104382985D01*
X181803299Y-104616914D01*
X181864370Y-104844837D01*
X181954660Y-105062819D01*
X181954665Y-105062828D01*
X182072644Y-105267171D01*
X182072645Y-105267172D01*
X182135221Y-105348723D01*
X182971458Y-104512487D01*
X182996478Y-104572890D01*
X183067612Y-104679351D01*
X183158149Y-104769888D01*
X183264610Y-104841022D01*
X183325011Y-104866041D01*
X182488775Y-105702277D01*
X182570327Y-105764854D01*
X182570328Y-105764855D01*
X182774671Y-105882834D01*
X182774680Y-105882839D01*
X182992663Y-105973129D01*
X182992661Y-105973129D01*
X183220585Y-106034200D01*
X183454514Y-106064999D01*
X183454529Y-106065000D01*
X183690471Y-106065000D01*
X183690485Y-106064999D01*
X183924414Y-106034200D01*
X184152337Y-105973129D01*
X184370319Y-105882839D01*
X184370328Y-105882834D01*
X184574681Y-105764850D01*
X184656223Y-105702279D01*
X184656223Y-105702276D01*
X183819987Y-104866041D01*
X183880390Y-104841022D01*
X183986851Y-104769888D01*
X184077388Y-104679351D01*
X184148522Y-104572890D01*
X184173541Y-104512488D01*
X185009776Y-105348723D01*
X185009779Y-105348723D01*
X185072350Y-105267181D01*
X185190334Y-105062828D01*
X185190339Y-105062819D01*
X185280629Y-104844837D01*
X185341700Y-104616914D01*
X185372499Y-104382985D01*
X185372500Y-104382971D01*
X185372500Y-104147028D01*
X185372499Y-104147014D01*
X185341700Y-103913085D01*
X185280629Y-103685162D01*
X185190339Y-103467180D01*
X185190334Y-103467171D01*
X185072355Y-103262828D01*
X185072354Y-103262827D01*
X185009777Y-103181275D01*
X184173541Y-104017511D01*
X184148522Y-103957110D01*
X184077388Y-103850649D01*
X183986851Y-103760112D01*
X183880390Y-103688978D01*
X183819988Y-103663958D01*
X184656223Y-102827721D01*
X184574672Y-102765145D01*
X184574671Y-102765144D01*
X184370328Y-102647165D01*
X184370319Y-102647160D01*
X184152336Y-102556870D01*
X184152338Y-102556870D01*
X183924414Y-102495799D01*
X183690485Y-102465000D01*
X183454514Y-102465000D01*
X183220585Y-102495799D01*
X182992662Y-102556870D01*
X182774680Y-102647160D01*
X182774671Y-102647165D01*
X182570328Y-102765144D01*
X182570318Y-102765150D01*
X182488775Y-102827720D01*
X182488775Y-102827721D01*
X183325012Y-103663958D01*
X183264610Y-103688978D01*
X183158149Y-103760112D01*
X183067612Y-103850649D01*
X182996478Y-103957110D01*
X182971458Y-104017511D01*
X182135221Y-103181275D01*
X182135220Y-103181275D01*
X182072650Y-103262818D01*
X182072644Y-103262828D01*
X181954665Y-103467171D01*
X181954660Y-103467180D01*
X181864370Y-103685162D01*
X181803299Y-103913085D01*
X181772500Y-104147014D01*
X169397849Y-104147014D01*
X169397849Y-102262230D01*
X169405269Y-102236957D01*
X169408982Y-102210878D01*
X169415826Y-102201004D01*
X169417534Y-102195191D01*
X169428021Y-102181160D01*
X169430969Y-102177747D01*
X169540061Y-102068656D01*
X169632163Y-101919334D01*
X169687348Y-101752797D01*
X169697849Y-101650009D01*
X169697848Y-100947682D01*
X170897349Y-100947682D01*
X170897349Y-101152317D01*
X170929358Y-101354417D01*
X170992593Y-101549031D01*
X171085490Y-101731350D01*
X171085496Y-101731359D01*
X171117872Y-101775921D01*
X171117873Y-101775922D01*
X171797349Y-101096446D01*
X171797349Y-101102661D01*
X171824608Y-101204394D01*
X171877269Y-101295606D01*
X171951743Y-101370080D01*
X172042955Y-101422741D01*
X172144688Y-101450000D01*
X172150902Y-101450000D01*
X171471425Y-102129474D01*
X171515999Y-102161859D01*
X171698317Y-102254755D01*
X171892931Y-102317990D01*
X172095032Y-102350000D01*
X172299666Y-102350000D01*
X172501766Y-102317990D01*
X172696380Y-102254755D01*
X172878698Y-102161859D01*
X172923270Y-102129474D01*
X172243796Y-101450000D01*
X172250010Y-101450000D01*
X172351743Y-101422741D01*
X172442955Y-101370080D01*
X172517429Y-101295606D01*
X172570090Y-101204394D01*
X172597349Y-101102661D01*
X172597349Y-101096447D01*
X173276823Y-101775921D01*
X173309208Y-101731349D01*
X173402104Y-101549031D01*
X173465339Y-101354417D01*
X173497349Y-101152317D01*
X173497349Y-100947682D01*
X173465339Y-100745582D01*
X173402104Y-100550968D01*
X173309208Y-100368650D01*
X173276823Y-100324077D01*
X173276823Y-100324076D01*
X172597349Y-101003551D01*
X172597349Y-100997339D01*
X172570090Y-100895606D01*
X172517429Y-100804394D01*
X172442955Y-100729920D01*
X172351743Y-100677259D01*
X172250010Y-100650000D01*
X172243795Y-100650000D01*
X172923271Y-99970524D01*
X172923270Y-99970523D01*
X172878708Y-99938147D01*
X172878699Y-99938141D01*
X172696380Y-99845244D01*
X172501766Y-99782009D01*
X172299666Y-99750000D01*
X172095032Y-99750000D01*
X171892931Y-99782009D01*
X171698317Y-99845244D01*
X171515993Y-99938143D01*
X171471426Y-99970523D01*
X171471426Y-99970524D01*
X172150903Y-100650000D01*
X172144688Y-100650000D01*
X172042955Y-100677259D01*
X171951743Y-100729920D01*
X171877269Y-100804394D01*
X171824608Y-100895606D01*
X171797349Y-100997339D01*
X171797349Y-101003553D01*
X171117873Y-100324077D01*
X171117872Y-100324077D01*
X171085492Y-100368644D01*
X170992593Y-100550968D01*
X170929358Y-100745582D01*
X170897349Y-100947682D01*
X169697848Y-100947682D01*
X169697848Y-100449992D01*
X169695529Y-100427295D01*
X169687348Y-100347203D01*
X169687347Y-100347200D01*
X169673436Y-100305220D01*
X169632163Y-100180666D01*
X169540061Y-100031344D01*
X169430975Y-99922258D01*
X169428021Y-99918839D01*
X169415346Y-99890982D01*
X169400683Y-99864127D01*
X169399926Y-99857090D01*
X169399086Y-99855243D01*
X169399454Y-99852703D01*
X169397849Y-99837769D01*
X169397849Y-97798806D01*
X169393539Y-97777140D01*
X169393539Y-97777139D01*
X169359401Y-97605520D01*
X169359400Y-97605513D01*
X169304890Y-97473914D01*
X169301522Y-97465782D01*
X169283984Y-97423441D01*
X169283977Y-97423428D01*
X169174489Y-97259568D01*
X169174488Y-97259567D01*
X169035131Y-97120210D01*
X169035130Y-97120209D01*
X165684208Y-93769288D01*
X165684206Y-93769285D01*
X165684206Y-93769286D01*
X165677139Y-93762219D01*
X165677139Y-93762218D01*
X165537782Y-93622861D01*
X165537781Y-93622860D01*
X165537780Y-93622859D01*
X165373920Y-93513371D01*
X165373911Y-93513366D01*
X165301315Y-93483296D01*
X165245165Y-93460038D01*
X165191836Y-93437949D01*
X165191832Y-93437948D01*
X165191828Y-93437946D01*
X165095188Y-93418724D01*
X164998544Y-93399500D01*
X164998541Y-93399500D01*
X146901459Y-93399500D01*
X146901455Y-93399500D01*
X146804812Y-93418724D01*
X146708167Y-93437947D01*
X146708161Y-93437949D01*
X146654834Y-93460037D01*
X146654834Y-93460038D01*
X146609315Y-93478892D01*
X146526089Y-93513366D01*
X146526079Y-93513371D01*
X146362218Y-93622860D01*
X146362214Y-93622863D01*
X144085579Y-95899500D01*
X143762220Y-96222859D01*
X143762218Y-96222861D01*
X143722861Y-96262218D01*
X143622859Y-96362219D01*
X143513371Y-96526079D01*
X143513364Y-96526092D01*
X143437950Y-96708160D01*
X143437947Y-96708170D01*
X143399500Y-96901456D01*
X143399500Y-96901459D01*
X143399500Y-99738541D01*
X143408067Y-99781613D01*
X143413601Y-99809431D01*
X143413601Y-99809432D01*
X143437947Y-99931833D01*
X143437949Y-99931837D01*
X143460038Y-99985164D01*
X143513366Y-100113911D01*
X143513371Y-100113920D01*
X143622859Y-100277780D01*
X143622860Y-100277781D01*
X143622861Y-100277782D01*
X143762218Y-100417139D01*
X143762219Y-100417139D01*
X143769286Y-100424206D01*
X143769285Y-100424206D01*
X143769288Y-100424208D01*
X147420682Y-104075603D01*
X147454166Y-104136924D01*
X147457000Y-104163282D01*
X147457000Y-104531716D01*
X147437315Y-104598755D01*
X147420681Y-104619397D01*
X146796899Y-105243181D01*
X146735576Y-105276666D01*
X146709218Y-105279500D01*
X139096977Y-105279500D01*
X139029938Y-105259815D01*
X138984183Y-105207011D01*
X138976733Y-105179865D01*
X138975876Y-105180068D01*
X138974092Y-105172520D01*
X138923797Y-105037671D01*
X138923793Y-105037664D01*
X138837547Y-104922455D01*
X138837544Y-104922452D01*
X138722335Y-104836206D01*
X138722328Y-104836202D01*
X138587482Y-104785908D01*
X138587483Y-104785908D01*
X138527883Y-104779501D01*
X138527881Y-104779500D01*
X138527873Y-104779500D01*
X138527864Y-104779500D01*
X136432129Y-104779500D01*
X136432123Y-104779501D01*
X136372516Y-104785908D01*
X136237671Y-104836202D01*
X136237664Y-104836206D01*
X136122455Y-104922452D01*
X136122452Y-104922455D01*
X136036206Y-105037664D01*
X136036202Y-105037671D01*
X135985908Y-105172517D01*
X135979501Y-105232116D01*
X135979500Y-105232135D01*
X133474162Y-105232135D01*
X133377510Y-105135483D01*
X133186433Y-104996657D01*
X132975996Y-104889433D01*
X132751368Y-104816446D01*
X132518097Y-104779500D01*
X132518092Y-104779500D01*
X132281908Y-104779500D01*
X132281903Y-104779500D01*
X132048631Y-104816446D01*
X131824003Y-104889433D01*
X131613566Y-104996657D01*
X131557119Y-105037669D01*
X131422490Y-105135483D01*
X131422488Y-105135485D01*
X131422487Y-105135485D01*
X131314792Y-105243181D01*
X131253469Y-105276666D01*
X131227111Y-105279500D01*
X124621455Y-105279500D01*
X124524812Y-105298724D01*
X124428170Y-105317946D01*
X124428165Y-105317948D01*
X124375337Y-105339831D01*
X124246089Y-105393366D01*
X124246080Y-105393371D01*
X124082219Y-105502859D01*
X124043786Y-105541293D01*
X123942861Y-105642218D01*
X123942858Y-105642221D01*
X117284399Y-112300681D01*
X117223076Y-112334166D01*
X117196718Y-112337000D01*
X114101462Y-112337000D01*
X114034423Y-112317315D01*
X114012150Y-112297876D01*
X114011738Y-112298289D01*
X113830154Y-112116705D01*
X113830149Y-112116701D01*
X113626348Y-111968632D01*
X113626347Y-111968631D01*
X113626345Y-111968630D01*
X113556247Y-111932913D01*
X113401883Y-111854260D01*
X113162285Y-111776410D01*
X112913462Y-111737000D01*
X112661538Y-111737000D01*
X112537126Y-111756705D01*
X112412714Y-111776410D01*
X112173116Y-111854260D01*
X111948651Y-111968632D01*
X111744850Y-112116701D01*
X111744845Y-112116705D01*
X111566705Y-112294845D01*
X111566701Y-112294850D01*
X111418632Y-112498651D01*
X111304260Y-112723116D01*
X111226410Y-112962714D01*
X111216187Y-113027259D01*
X111187000Y-113211538D01*
X104418959Y-113211538D01*
X100440111Y-109232691D01*
X100406626Y-109171368D01*
X100404853Y-109128828D01*
X100428000Y-108953011D01*
X100428000Y-108716989D01*
X100397193Y-108482986D01*
X100336106Y-108255007D01*
X100245784Y-108036951D01*
X100245782Y-108036948D01*
X100245780Y-108036943D01*
X100203618Y-107963918D01*
X100127773Y-107832550D01*
X100003480Y-107670568D01*
X99984093Y-107645302D01*
X99984087Y-107645295D01*
X99817204Y-107478412D01*
X99817197Y-107478406D01*
X99629954Y-107334730D01*
X99629953Y-107334729D01*
X99629950Y-107334727D01*
X99548457Y-107287677D01*
X99425556Y-107216719D01*
X99425545Y-107216714D01*
X99207493Y-107126394D01*
X98979510Y-107065306D01*
X98745520Y-107034501D01*
X98745517Y-107034500D01*
X98745511Y-107034500D01*
X98509489Y-107034500D01*
X98509483Y-107034500D01*
X98509479Y-107034501D01*
X98275489Y-107065306D01*
X98047506Y-107126394D01*
X97829454Y-107216714D01*
X97829443Y-107216719D01*
X97625045Y-107334730D01*
X97437802Y-107478406D01*
X97437795Y-107478412D01*
X97270912Y-107645295D01*
X97270906Y-107645302D01*
X97127230Y-107832545D01*
X97009219Y-108036943D01*
X97009214Y-108036954D01*
X96918894Y-108255006D01*
X96857806Y-108482989D01*
X96827001Y-108716979D01*
X96827000Y-108716995D01*
X93100500Y-108716995D01*
X93100500Y-102654983D01*
X96827000Y-102654983D01*
X96827000Y-104855001D01*
X96827001Y-104855018D01*
X96837500Y-104957796D01*
X96837501Y-104957799D01*
X96872302Y-105062819D01*
X96892686Y-105124334D01*
X96984788Y-105273656D01*
X97108844Y-105397712D01*
X97258166Y-105489814D01*
X97424703Y-105544999D01*
X97527491Y-105555500D01*
X99727508Y-105555499D01*
X99830297Y-105544999D01*
X99996834Y-105489814D01*
X100146156Y-105397712D01*
X100270212Y-105273656D01*
X100362314Y-105124334D01*
X100417499Y-104957797D01*
X100428000Y-104855009D01*
X100427999Y-102654992D01*
X100427199Y-102647165D01*
X100417499Y-102552203D01*
X100417498Y-102552200D01*
X100362314Y-102385666D01*
X100270212Y-102236344D01*
X100146156Y-102112288D01*
X100053388Y-102055069D01*
X99996836Y-102020187D01*
X99996835Y-102020186D01*
X99996834Y-102020186D01*
X99929977Y-101998031D01*
X99885641Y-101983340D01*
X99828197Y-101943567D01*
X99801374Y-101879051D01*
X99813689Y-101810275D01*
X99836962Y-101777956D01*
X103678101Y-97936819D01*
X103739424Y-97903334D01*
X103765782Y-97900500D01*
X118584218Y-97900500D01*
X118651257Y-97920185D01*
X118671899Y-97936819D01*
X121150927Y-100415847D01*
X121184412Y-100477170D01*
X121186421Y-100506666D01*
X121187000Y-100506666D01*
X121187000Y-100511538D01*
X121187000Y-100763462D01*
X121214125Y-100934719D01*
X121226410Y-101012285D01*
X121304260Y-101251883D01*
X121364485Y-101370080D01*
X121417414Y-101473959D01*
X121418632Y-101476348D01*
X121566701Y-101680149D01*
X121566705Y-101680154D01*
X121744845Y-101858294D01*
X121744850Y-101858298D01*
X121862214Y-101943567D01*
X121948655Y-102006370D01*
X122042256Y-102054062D01*
X122063752Y-102065015D01*
X122114548Y-102112990D01*
X122131343Y-102180811D01*
X122108806Y-102246946D01*
X122054090Y-102290397D01*
X122007457Y-102299500D01*
X115915783Y-102299500D01*
X115848744Y-102279815D01*
X115828102Y-102263181D01*
X115133627Y-101568706D01*
X114424070Y-100859150D01*
X114390586Y-100797828D01*
X114388588Y-100768334D01*
X114388000Y-100768334D01*
X114388000Y-100511538D01*
X114384147Y-100487209D01*
X114348590Y-100262715D01*
X114270741Y-100023121D01*
X114270739Y-100023118D01*
X114270739Y-100023116D01*
X114226082Y-99935472D01*
X114156370Y-99798655D01*
X114119222Y-99747525D01*
X114008298Y-99594850D01*
X114008294Y-99594845D01*
X113830154Y-99416705D01*
X113830149Y-99416701D01*
X113626348Y-99268632D01*
X113626347Y-99268631D01*
X113626345Y-99268630D01*
X113541853Y-99225579D01*
X113401883Y-99154260D01*
X113162285Y-99076410D01*
X112913462Y-99037000D01*
X112661538Y-99037000D01*
X112537126Y-99056705D01*
X112412714Y-99076410D01*
X112173116Y-99154260D01*
X111948651Y-99268632D01*
X111744850Y-99416701D01*
X111744845Y-99416705D01*
X111566705Y-99594845D01*
X111566701Y-99594850D01*
X111418632Y-99798651D01*
X111304260Y-100023116D01*
X111226410Y-100262714D01*
X111192744Y-100475269D01*
X111187000Y-100511538D01*
X111187000Y-100763462D01*
X111214125Y-100934719D01*
X111226410Y-101012285D01*
X111304260Y-101251883D01*
X111364485Y-101370080D01*
X111417414Y-101473959D01*
X111418632Y-101476348D01*
X111566701Y-101680149D01*
X111566705Y-101680154D01*
X111744845Y-101858294D01*
X111744850Y-101858298D01*
X111862214Y-101943567D01*
X111948655Y-102006370D01*
X112091684Y-102079247D01*
X112173116Y-102120739D01*
X112173118Y-102120739D01*
X112173121Y-102120741D01*
X112412715Y-102198590D01*
X112661538Y-102238000D01*
X112661539Y-102238000D01*
X112918334Y-102238000D01*
X112918334Y-102239530D01*
X112980077Y-102252476D01*
X113009151Y-102274071D01*
X114812215Y-104077137D01*
X114812219Y-104077140D01*
X114976079Y-104186628D01*
X114976085Y-104186631D01*
X114976086Y-104186632D01*
X115158165Y-104262052D01*
X115351455Y-104300500D01*
X115351458Y-104300501D01*
X115351460Y-104300501D01*
X115554655Y-104300501D01*
X115554675Y-104300500D01*
X123598542Y-104300500D01*
X123617870Y-104296655D01*
X123695188Y-104281275D01*
X123791836Y-104262051D01*
X123871835Y-104228914D01*
X123973914Y-104186632D01*
X124137782Y-104077139D01*
X124277139Y-103937782D01*
X124277139Y-103937780D01*
X124287347Y-103927573D01*
X124287348Y-103927570D01*
X127264920Y-100950000D01*
X130920898Y-100950000D01*
X131966988Y-100950000D01*
X131934075Y-101007007D01*
X131900000Y-101134174D01*
X131900000Y-101265826D01*
X131934075Y-101392993D01*
X131966988Y-101450000D01*
X130920898Y-101450000D01*
X130936934Y-101551247D01*
X131009897Y-101775802D01*
X131117085Y-101986171D01*
X131255866Y-102177186D01*
X131422813Y-102344133D01*
X131613828Y-102482914D01*
X131824195Y-102590102D01*
X132048744Y-102663063D01*
X132048750Y-102663065D01*
X132150000Y-102679101D01*
X132150000Y-101633012D01*
X132207007Y-101665925D01*
X132334174Y-101700000D01*
X132465826Y-101700000D01*
X132592993Y-101665925D01*
X132650000Y-101633012D01*
X132650000Y-102679100D01*
X132751249Y-102663065D01*
X132751255Y-102663063D01*
X132975804Y-102590102D01*
X133186171Y-102482914D01*
X133377186Y-102344133D01*
X133544133Y-102177186D01*
X133682914Y-101986171D01*
X133790102Y-101775802D01*
X133863065Y-101551247D01*
X133879102Y-101450000D01*
X132833012Y-101450000D01*
X132865925Y-101392993D01*
X132900000Y-101265826D01*
X132900000Y-101134174D01*
X132865925Y-101007007D01*
X132833012Y-100950000D01*
X133879102Y-100950000D01*
X133863065Y-100848752D01*
X133790102Y-100624197D01*
X133682914Y-100413828D01*
X133544133Y-100222813D01*
X133377186Y-100055866D01*
X133186171Y-99917085D01*
X132975802Y-99809897D01*
X132751247Y-99736934D01*
X132650000Y-99720897D01*
X132650000Y-100766988D01*
X132592993Y-100734075D01*
X132465826Y-100700000D01*
X132334174Y-100700000D01*
X132207007Y-100734075D01*
X132150000Y-100766988D01*
X132150000Y-99720897D01*
X132048752Y-99736934D01*
X131824197Y-99809897D01*
X131613828Y-99917085D01*
X131422813Y-100055866D01*
X131255866Y-100222813D01*
X131117085Y-100413828D01*
X131009897Y-100624197D01*
X130936934Y-100848752D01*
X130920898Y-100950000D01*
X127264920Y-100950000D01*
X129578102Y-98636819D01*
X129639425Y-98603334D01*
X129665783Y-98600500D01*
X133414218Y-98600500D01*
X133481257Y-98620185D01*
X133501899Y-98636819D01*
X135943181Y-101078101D01*
X135976666Y-101139424D01*
X135979500Y-101165782D01*
X135979500Y-101318093D01*
X135979499Y-101318095D01*
X136016446Y-101551368D01*
X136089433Y-101775996D01*
X136175623Y-101945151D01*
X136196657Y-101986433D01*
X136335483Y-102177510D01*
X136502490Y-102344517D01*
X136693567Y-102483343D01*
X136792991Y-102534002D01*
X136904003Y-102590566D01*
X136904005Y-102590566D01*
X136904008Y-102590568D01*
X137000195Y-102621821D01*
X137128631Y-102663553D01*
X137361903Y-102700500D01*
X137361908Y-102700500D01*
X137598097Y-102700500D01*
X137831368Y-102663553D01*
X137857719Y-102654991D01*
X138055992Y-102590568D01*
X138266433Y-102483343D01*
X138457510Y-102344517D01*
X138624517Y-102177510D01*
X138763343Y-101986433D01*
X138870568Y-101775992D01*
X138943553Y-101551368D01*
X138943923Y-101549031D01*
X138980500Y-101318095D01*
X138980500Y-101081902D01*
X138943553Y-100848631D01*
X138904981Y-100729920D01*
X138870568Y-100624008D01*
X138870566Y-100624005D01*
X138870566Y-100624003D01*
X138794782Y-100475269D01*
X138763343Y-100413567D01*
X138624517Y-100222490D01*
X138457510Y-100055483D01*
X138266433Y-99916657D01*
X138243178Y-99904808D01*
X138055996Y-99809433D01*
X137831368Y-99736446D01*
X137598097Y-99699500D01*
X137598092Y-99699500D01*
X137445782Y-99699500D01*
X137378743Y-99679815D01*
X137358101Y-99663181D01*
X134661479Y-96966559D01*
X134661459Y-96966537D01*
X134517785Y-96822863D01*
X134517781Y-96822860D01*
X134353920Y-96713371D01*
X134353911Y-96713366D01*
X134270683Y-96678892D01*
X134225165Y-96660038D01*
X134198500Y-96648993D01*
X134171837Y-96637949D01*
X134171833Y-96637947D01*
X134022097Y-96608164D01*
X134022096Y-96608163D01*
X134000319Y-96603832D01*
X133978542Y-96599500D01*
X133978541Y-96599500D01*
X129101459Y-96599500D01*
X129101458Y-96599500D01*
X129079681Y-96603832D01*
X129057903Y-96608164D01*
X129057902Y-96608164D01*
X128908167Y-96637947D01*
X128908159Y-96637950D01*
X128854834Y-96660037D01*
X128854834Y-96660038D01*
X128809315Y-96678892D01*
X128726089Y-96713366D01*
X128726079Y-96713371D01*
X128594247Y-96801460D01*
X128594246Y-96801461D01*
X128562215Y-96822862D01*
X128562214Y-96822863D01*
X124599681Y-100785397D01*
X124538358Y-100818882D01*
X124468666Y-100813898D01*
X124412733Y-100772026D01*
X124388316Y-100706562D01*
X124388000Y-100697716D01*
X124388000Y-100511538D01*
X124384147Y-100487209D01*
X124348590Y-100262715D01*
X124270741Y-100023121D01*
X124270739Y-100023118D01*
X124270739Y-100023116D01*
X124226082Y-99935472D01*
X124156370Y-99798655D01*
X124119222Y-99747525D01*
X124008298Y-99594850D01*
X124008294Y-99594845D01*
X123830154Y-99416705D01*
X123830149Y-99416701D01*
X123626348Y-99268632D01*
X123626347Y-99268631D01*
X123626345Y-99268630D01*
X123541853Y-99225579D01*
X123401883Y-99154260D01*
X123162285Y-99076410D01*
X122913462Y-99037000D01*
X122661538Y-99037000D01*
X122656666Y-99037000D01*
X122656666Y-99035488D01*
X122594846Y-99022482D01*
X122565847Y-99000927D01*
X119831479Y-96266559D01*
X119831459Y-96266537D01*
X119687785Y-96122863D01*
X119687781Y-96122860D01*
X119523920Y-96013371D01*
X119523911Y-96013366D01*
X119451315Y-95983296D01*
X119395165Y-95960038D01*
X119341836Y-95937949D01*
X119341832Y-95937948D01*
X119341828Y-95937946D01*
X119245188Y-95918724D01*
X119148544Y-95899500D01*
X119148541Y-95899500D01*
X103201459Y-95899500D01*
X103201455Y-95899500D01*
X103104812Y-95918724D01*
X103008167Y-95937947D01*
X103008161Y-95937949D01*
X102954834Y-95960037D01*
X102954834Y-95960038D01*
X102909315Y-95978892D01*
X102826089Y-96013366D01*
X102826079Y-96013371D01*
X102662219Y-96122859D01*
X102592540Y-96192538D01*
X102522861Y-96262218D01*
X102522858Y-96262221D01*
X97989721Y-100795358D01*
X97989718Y-100795361D01*
X97936448Y-100848631D01*
X97850359Y-100934719D01*
X97740871Y-101098579D01*
X97740864Y-101098592D01*
X97692943Y-101214287D01*
X97692943Y-101214288D01*
X97668215Y-101273987D01*
X97665449Y-101280664D01*
X97658004Y-101318092D01*
X97653333Y-101341575D01*
X97627000Y-101473956D01*
X97627000Y-101832357D01*
X97607315Y-101899396D01*
X97554511Y-101945151D01*
X97515602Y-101955715D01*
X97424702Y-101965001D01*
X97424700Y-101965001D01*
X97258168Y-102020185D01*
X97258163Y-102020187D01*
X97108842Y-102112289D01*
X96984789Y-102236342D01*
X96892687Y-102385663D01*
X96892686Y-102385666D01*
X96837501Y-102552203D01*
X96837501Y-102552204D01*
X96837500Y-102552204D01*
X96827000Y-102654983D01*
X93100500Y-102654983D01*
X93100500Y-92924500D01*
X93120185Y-92857461D01*
X93172989Y-92811706D01*
X93224500Y-92800500D01*
X189575500Y-92800500D01*
X189642539Y-92820185D01*
G37*
%TD.AperFunction*%
%TD*%
M02*
